<svg width="16" height="16" viewBox="0 0 16 16" fill="none" xmlns="http://www.w3.org/2000/svg">
<path d="M11.3326 7.66492C12.3053 7.66492 13.2381 8.05132 13.9259 8.73912C14.6136 9.42692 15 10.3598 15 11.3325C15 12.3052 14.6136 13.238 13.9259 13.9258C13.2381 14.6136 12.3053 15 11.3326 15C10.36 15 9.42718 14.6136 8.73942 13.9258C8.05165 13.238 7.66527 12.3052 7.66527 11.3325C7.66527 10.3598 8.05165 9.42692 8.73942 8.73912C9.42718 8.05132 10.36 7.66492 11.3326 7.66492ZM7.68061 8.99857C7.48075 9.31031 7.32186 9.64649 7.20785 9.99881H2.49962C2.43392 9.99872 2.36885 10.0116 2.30814 10.0367C2.24742 10.0618 2.19226 10.0986 2.1458 10.1451C2.09935 10.1916 2.06251 10.2467 2.03741 10.3074C2.01231 10.3682 1.99944 10.4332 1.99952 10.4989V10.8837C1.99952 11.2404 2.12755 11.5859 2.35959 11.8573C3.19508 12.8368 4.50667 13.3336 6.33168 13.3336C6.72976 13.3336 7.10316 13.3103 7.4519 13.2629C7.61593 13.593 7.82063 13.8991 8.06001 14.1745C7.52991 14.2812 6.95313 14.3345 6.33168 14.3345C4.23395 14.3345 2.64298 13.7304 1.59878 12.5074C1.2123 12.0547 0.99998 11.4789 1 10.8837V10.4983C1 10.1005 1.158 9.71907 1.43923 9.43782C1.72046 9.15657 2.1019 8.99857 2.49962 8.99857H7.68061ZM11.3326 8.99857L11.2726 9.00391C11.206 9.01608 11.1447 9.04825 11.0968 9.09613C11.0489 9.14402 11.0167 9.20535 11.0046 9.27197L10.9992 9.33198V10.999H9.33492L9.27491 11.0044C9.20829 11.0166 9.14696 11.0487 9.09908 11.0966C9.0512 11.1445 9.01903 11.2058 9.00686 11.2724L9.00152 11.3325L9.00686 11.3925C9.01903 11.4591 9.0512 11.5204 9.09908 11.5683C9.14696 11.6162 9.20829 11.6484 9.27491 11.6605L9.33492 11.6659H10.9992V13.3329L11.0046 13.393C11.0167 13.4596 11.0489 13.5209 11.0968 13.5688C11.1447 13.6167 11.206 13.6488 11.2726 13.661L11.3326 13.6663L11.3926 13.661C11.4593 13.6488 11.5206 13.6167 11.5685 13.5688C11.6164 13.5209 11.6485 13.4596 11.6607 13.393L11.666 13.3329V11.6659H13.3357L13.3957 11.6605C13.4623 11.6484 13.5236 11.6162 13.5715 11.5683C13.6194 11.5204 13.6516 11.4591 13.6637 11.3925L13.6691 11.3325L13.6637 11.2724C13.6516 11.2058 13.6194 11.1445 13.5715 11.0966C13.5236 11.0487 13.4623 11.0166 13.3957 11.0044L13.3357 10.999H11.666V9.33198L11.6607 9.27197C11.6485 9.20535 11.6164 9.14402 11.5685 9.09613C11.5206 9.04825 11.4593 9.01608 11.3926 9.00391L11.3326 8.99857ZM6.33168 1C6.76951 1 7.20304 1.08624 7.60754 1.2538C8.01203 1.42135 8.37957 1.66694 8.68915 1.97654C8.99874 2.28615 9.24432 2.6537 9.41187 3.05821C9.57942 3.46273 9.66565 3.89628 9.66565 4.33413C9.66565 4.77197 9.57942 5.20553 9.41187 5.61004C9.24432 6.01456 8.99874 6.38211 8.68915 6.69171C8.37957 7.00131 8.01203 7.2469 7.60754 7.41446C7.20304 7.58201 6.76951 7.66825 6.33168 7.66825C5.44746 7.66825 4.59945 7.31698 3.97421 6.69171C3.34897 6.06644 2.99771 5.21839 2.99771 4.33413C2.99771 3.44986 3.34897 2.60181 3.97421 1.97654C4.59945 1.35127 5.44746 1 6.33168 1ZM6.33168 2.00024C6.02521 2.00024 5.72173 2.06061 5.43858 2.17789C5.15544 2.29518 4.89816 2.4671 4.68145 2.68382C4.46474 2.90054 4.29284 3.15783 4.17555 3.44099C4.05827 3.72415 3.9979 4.02764 3.9979 4.33413C3.9979 4.64062 4.05827 4.94411 4.17555 5.22727C4.29284 5.51043 4.46474 5.76771 4.68145 5.98444C4.89816 6.20116 5.15544 6.37307 5.43858 6.49036C5.72173 6.60765 6.02521 6.66802 6.33168 6.66802C6.95064 6.66802 7.54424 6.42213 7.98191 5.98444C8.41958 5.54675 8.66546 4.95311 8.66546 4.33413C8.66546 3.71514 8.41958 3.12151 7.98191 2.68382C7.54424 2.24613 6.95064 2.00024 6.33168 2.00024Z" fill="white"/>
</svg>
