<svg width="22" height="22" viewBox="0 0 22 22" fill="none" xmlns="http://www.w3.org/2000/svg">
<path d="M10.0834 16.4083C10.0834 17.413 10.3318 18.3599 10.7709 19.1904V19.8458C10.7708 20.02 10.7046 20.1877 10.5857 20.315C10.4668 20.4423 10.304 20.5196 10.1302 20.5315C9.95643 20.5434 9.78462 20.4889 9.6495 20.3789C9.51437 20.269 9.42601 20.1119 9.40227 19.9393L9.39585 19.8458V17.7668C7.87558 17.6539 6.45049 16.9838 5.39388 15.8849C4.33727 14.786 3.72353 13.3357 3.67035 11.8122L3.66669 11.5958V11.1375C3.66674 10.9633 3.73291 10.7956 3.85183 10.6684C3.97075 10.5411 4.13354 10.4637 4.30733 10.4518C4.48111 10.4399 4.65292 10.4945 4.78804 10.6044C4.92317 10.7143 5.01153 10.8714 5.03527 11.044L5.04169 11.1375V11.5958C5.04158 12.838 5.52176 14.0321 6.3818 14.9283C7.24183 15.8246 8.41509 16.3536 9.65619 16.4047L9.85419 16.4083H10.0834V16.4083ZM13.75 5.86666V10.9065C13.2462 11.1167 12.7736 11.3952 12.3457 11.7342C12.3649 11.6151 12.375 11.4922 12.375 11.3667V5.86666C12.375 5.25888 12.1336 4.67598 11.7038 4.24621C11.274 3.81644 10.6911 3.575 10.0834 3.575C9.47557 3.575 8.89267 3.81644 8.4629 4.24621C8.03313 4.67598 7.79169 5.25888 7.79169 5.86666V11.3667C7.79162 11.7308 7.87834 12.0898 8.04467 12.4137C8.21099 12.7377 8.45213 13.0174 8.7481 13.2296C9.04407 13.4418 9.38634 13.5804 9.74656 13.6339C10.1068 13.6874 10.4746 13.6543 10.8194 13.5373C10.5609 14.0064 10.3673 14.5085 10.2438 15.0297C9.74924 15.0513 9.25544 14.9726 8.79214 14.7983C8.32885 14.624 7.90564 14.3577 7.54803 14.0154C7.19043 13.6731 6.90583 13.262 6.7114 12.8068C6.51696 12.3515 6.41671 11.8617 6.41669 11.3667V5.86666C6.41669 4.8942 6.803 3.96157 7.49063 3.27394C8.17826 2.58631 9.11089 2.2 10.0834 2.2C11.0558 2.2 11.9884 2.58631 12.6761 3.27394C13.3637 3.96157 13.75 4.8942 13.75 5.86666V5.86666ZM13.0882 13.1771C13.1567 13.4141 13.1767 13.6626 13.1469 13.9076C13.1172 14.1525 13.0382 14.3889 12.9149 14.6027C12.7915 14.8164 12.6263 15.003 12.4291 15.1514C12.2319 15.2997 12.0068 15.4067 11.7673 15.466L11.2319 15.598C11.1461 16.1469 11.148 16.706 11.2374 17.2544L11.7324 17.3736C11.9741 17.4318 12.2013 17.5385 12.4004 17.6872C12.5995 17.836 12.7663 18.0237 12.8906 18.2389C13.0149 18.4541 13.0942 18.6923 13.1236 18.9391C13.153 19.1859 13.1319 19.436 13.0616 19.6744L12.8902 20.2537C13.2935 20.6076 13.7519 20.8945 14.2505 21.098L14.7034 20.6232C14.8746 20.443 15.0807 20.2996 15.3091 20.2016C15.5375 20.1036 15.7835 20.053 16.0321 20.053C16.2806 20.053 16.5266 20.1036 16.755 20.2016C16.9834 20.2996 17.1895 20.443 17.3608 20.6232L17.8173 21.1044C18.3136 20.9026 18.773 20.6198 19.1767 20.2675L18.9952 19.6387C18.9268 19.4017 18.9069 19.1533 18.9368 18.9084C18.9666 18.6636 19.0456 18.4273 19.1689 18.2137C19.2922 18 19.4574 17.8135 19.6545 17.6652C19.8516 17.5169 20.0767 17.4099 20.3161 17.3507L20.8514 17.2187C20.9375 16.6694 20.9357 16.11 20.8459 15.5613L20.3509 15.4422C20.1093 15.384 19.8821 15.2772 19.683 15.1285C19.4839 14.9798 19.3171 14.7921 19.1928 14.5769C19.0685 14.3617 18.9892 14.1235 18.9598 13.8767C18.9304 13.6299 18.9515 13.3797 19.0218 13.1413L19.1932 12.5638C18.7899 12.2082 18.3302 11.9222 17.8329 11.7177L17.3809 12.1935C17.2097 12.3738 17.0035 12.5173 16.775 12.6154C16.5465 12.7135 16.3004 12.7641 16.0518 12.7641C15.8031 12.7641 15.557 12.7135 15.3285 12.6154C15.1 12.5173 14.8939 12.3738 14.7226 12.1935L14.2661 11.7122C13.7674 11.9139 13.3091 12.1981 12.9067 12.5482L13.0882 13.1771V13.1771ZM16.0417 17.7833C15.3084 17.7833 14.7125 17.1673 14.7125 16.4083C14.7125 15.6484 15.3084 15.0333 16.0417 15.0333C16.775 15.0333 17.3709 15.6484 17.3709 16.4083C17.3709 17.1673 16.775 17.7833 16.0417 17.7833Z" fill="white"/>
</svg>
