<svg width="20" height="20" viewBox="0 0 20 20" fill="none" xmlns="http://www.w3.org/2000/svg">
<path d="M16.8056 8.53954C17.7113 8.95525 18.1329 9.96242 17.8807 11.0119L17.5517 12.3808C17.4974 12.6069 17.3553 12.8045 17.1544 12.9335C16.9535 13.0625 16.709 13.1132 16.4706 13.0751L14.0796 12.6929C13.9674 12.6752 13.8634 12.6256 13.7808 12.5506C13.6982 12.4756 13.6408 12.3787 13.6161 12.2721L13.0235 9.71008C13.0021 9.61798 12.9562 9.53277 12.8903 9.46274C12.8244 9.39271 12.7407 9.34023 12.6474 9.31042L12.4674 9.82896L12.6474 9.31042H12.6467L12.6452 9.30969L12.6414 9.30823L12.6285 9.30386C12.3717 9.22881 12.1116 9.16457 11.8489 9.11132C11.2405 8.98634 10.6204 8.92133 9.99816 8.91732C9.28247 8.91732 8.62299 9.01505 8.14738 9.11132C7.88475 9.16456 7.62466 9.2288 7.36787 9.30386L7.35495 9.30823L7.35115 9.30969H7.34887L7.52894 9.82896L7.34887 9.31042C7.2556 9.34023 7.17194 9.39271 7.10604 9.46274C7.04014 9.53277 6.99424 9.61798 6.97279 9.71008L6.38018 12.2721C6.35547 12.3787 6.29814 12.4756 6.21555 12.5506C6.13296 12.6256 6.02889 12.6752 5.91673 12.6929L3.52652 13.0751C3.28799 13.1134 3.04325 13.0628 2.8422 12.9338C2.64116 12.8048 2.49897 12.607 2.44462 12.3808L2.11868 11.0265C1.86492 9.97117 2.29343 8.95744 3.20742 8.54319C4.69199 7.86931 7.03129 7.10354 9.99968 7.09405C12.9787 7.08457 15.3233 7.8591 16.8064 8.53954H16.8056ZM11.9849 10.2651L12.5039 12.5092C12.5778 12.8284 12.7495 13.1192 12.9968 13.3441C13.2441 13.569 13.5558 13.7179 13.8919 13.7716L16.2829 14.1545C16.8075 14.2385 17.3458 14.1273 17.7879 13.8435C18.2301 13.5597 18.5428 13.1248 18.6625 12.6273L18.9914 11.2577C19.3364 9.82312 18.7871 8.23615 17.2972 7.55279C15.6986 6.81838 13.1854 5.98988 9.99588 6.00009C6.82312 6.0103 4.31895 6.82859 2.72041 7.55352C1.21988 8.23469 0.66146 9.82896 1.00867 11.2723L1.33385 12.6273C1.45347 13.1248 1.76624 13.5597 2.2084 13.8435C2.65055 14.1273 3.1888 14.2385 3.71342 14.1545L6.10439 13.7716C6.44047 13.7179 6.75218 13.569 6.99951 13.3441C7.24684 13.1192 7.4185 12.8284 7.49247 12.5092L8.01215 10.2651C8.11395 10.2396 8.23931 10.2111 8.38215 10.1819C8.80837 10.0959 9.38503 10.0113 9.99816 10.0113C10.612 10.0113 11.1879 10.0959 11.6142 10.1819C11.7578 10.2111 11.8824 10.2403 11.9849 10.2651Z" fill="white"/>
</svg>
