<svg width="20" height="20" viewBox="0 0 20 20" fill="none" xmlns="http://www.w3.org/2000/svg">
<path d="M16.8056 8.90317C17.7113 9.31888 18.1329 10.3261 17.8807 11.3755L17.5517 12.7444C17.4974 12.9705 17.3553 13.1682 17.1544 13.2972C16.9535 13.4262 16.709 13.4768 16.4706 13.4387L14.0796 13.0566C13.9674 13.0388 13.8634 12.9893 13.7808 12.9143C13.6982 12.8393 13.6408 12.7423 13.6161 12.6358L13.0235 10.0737C13.0021 9.98161 12.9562 9.8964 12.8903 9.82637C12.8244 9.75634 12.7407 9.70387 12.6474 9.67405L12.4674 10.1926L12.6474 9.67405H12.6467L12.6452 9.67332L12.6414 9.67186L12.6285 9.66749C12.3717 9.59244 12.1116 9.5282 11.8489 9.47495C11.2405 9.34997 10.6204 9.28497 9.99816 9.28096C9.28247 9.28096 8.62299 9.37868 8.14738 9.47495C7.88475 9.52819 7.62466 9.59243 7.36787 9.66749L7.35495 9.67186L7.35115 9.67332H7.34887L7.52894 10.1926L7.34887 9.67405C7.2556 9.70387 7.17194 9.75634 7.10604 9.82637C7.04014 9.8964 6.99424 9.98161 6.97279 10.0737L6.38018 12.6358C6.35547 12.7423 6.29814 12.8393 6.21555 12.9143C6.13296 12.9893 6.02889 13.0388 5.91673 13.0566L3.52652 13.4387C3.28799 13.477 3.04325 13.4265 2.8422 13.2974C2.64116 13.1684 2.49897 12.9706 2.44462 12.7444L2.11868 11.3901C1.86492 10.3348 2.29343 9.32107 3.20742 8.90682C4.69199 8.23294 7.03129 7.46717 9.99968 7.45769C12.9787 7.44821 15.3233 8.22273 16.8064 8.90317H16.8056ZM11.9849 10.6287L12.5039 12.8728C12.5778 13.192 12.7495 13.4828 12.9968 13.7077C13.2441 13.9327 13.5558 14.0815 13.8919 14.1352L16.2829 14.5181C16.8075 14.6021 17.3458 14.4909 17.7879 14.2071C18.2301 13.9234 18.5428 13.4884 18.6625 12.9909L18.9914 11.6213C19.3364 10.1868 18.7871 8.59978 17.2972 7.91642C15.6986 7.18201 13.1854 6.35352 9.99588 6.36373C6.82312 6.37394 4.31895 7.19222 2.72041 7.91715C1.21988 8.59832 0.66146 10.1926 1.00867 11.6359L1.33385 12.9909C1.45348 13.4884 1.76624 13.9234 2.2084 14.2071C2.65055 14.4909 3.1888 14.6021 3.71342 14.5181L6.10439 14.1352C6.44047 14.0815 6.75218 13.9327 6.99951 13.7077C7.24684 13.4828 7.4185 13.192 7.49247 12.8728L8.01215 10.6287C8.11395 10.6032 8.23931 10.5747 8.38215 10.5456C8.80838 10.4595 9.38503 10.3749 9.99816 10.3749C10.612 10.3749 11.1879 10.4595 11.6142 10.5456C11.7578 10.5747 11.8824 10.6039 11.9849 10.6287V10.6287Z" fill="white"/>
</svg>
