<svg width="16" height="16" viewBox="0 0 16 16" fill="none" xmlns="http://www.w3.org/2000/svg">
<path d="M13.8628 11.3316C13.8193 11.3751 13.7676 11.4097 13.7107 11.4332C13.6538 11.4568 13.5929 11.4689 13.5313 11.4689C13.4697 11.4689 13.4088 11.4568 13.3519 11.4332C13.295 11.4097 13.2433 11.3751 13.1998 11.3316L8.00006 6.13184L2.80031 11.3316C2.75678 11.3751 2.7051 11.4097 2.64822 11.4332C2.59134 11.4568 2.53038 11.4689 2.46881 11.4689C2.40725 11.4689 2.34628 11.4568 2.28941 11.4332C2.23253 11.4097 2.18085 11.3751 2.13731 11.3316C2.09378 11.2881 2.05925 11.2364 2.03569 11.1795C2.01213 11.1226 2 11.0617 2 11.0001C2 10.9385 2.01213 10.8776 2.03569 10.8207C2.05925 10.7638 2.09378 10.7121 2.13731 10.6686L7.66856 5.13734C7.71209 5.0938 7.76377 5.05926 7.82065 5.03569C7.87753 5.01213 7.93849 5 8.00006 5C8.06163 5 8.12259 5.01213 8.17947 5.03569C8.23635 5.05926 8.28803 5.0938 8.33156 5.13734L13.8628 10.6686C13.9064 10.7121 13.9409 10.7638 13.9645 10.8207C13.988 10.8776 14.0001 10.9385 14.0001 11.0001C14.0001 11.0617 13.988 11.1226 13.9645 11.1795C13.9409 11.2364 13.9064 11.2881 13.8628 11.3316Z" fill="white"/>
</svg>
