<svg width="12" height="12" viewBox="0 0 12 12" fill="none" xmlns="http://www.w3.org/2000/svg">
<g clip-path="url(#clip0_2:24)">
<path d="M11.8628 8.95659C11.8193 9.00013 11.7676 9.03467 11.7107 9.05823C11.6538 9.0818 11.5929 9.09392 11.5313 9.09392C11.4697 9.09392 11.4088 9.0818 11.3519 9.05823C11.295 9.03467 11.2433 9.00013 11.1998 8.95659L6.00006 3.75684L0.800312 8.95659C0.756779 9.00012 0.705097 9.03465 0.648218 9.05821C0.59134 9.08177 0.530377 9.0939 0.468812 9.0939C0.407247 9.0939 0.346284 9.08177 0.289405 9.05821C0.232526 9.03465 0.180845 9.00012 0.137312 8.95659C0.0937787 8.91305 0.0592463 8.86137 0.0356863 8.80449C0.0121263 8.74761 0 8.68665 0 8.62509C0 8.56352 0.0121263 8.50256 0.0356863 8.44568C0.0592463 8.3888 0.0937787 8.33712 0.137312 8.29359L5.66856 2.76234C5.71209 2.7188 5.76377 2.68426 5.82065 2.66069C5.87753 2.63713 5.93849 2.625 6.00006 2.625C6.06163 2.625 6.12259 2.63713 6.17947 2.66069C6.23635 2.68426 6.28803 2.7188 6.33156 2.76234L11.8628 8.29359C11.9064 8.33712 11.9409 8.3888 11.9645 8.44568C11.988 8.50256 12.0001 8.56352 12.0001 8.62509C12.0001 8.68665 11.988 8.74762 11.9645 8.8045C11.9409 8.86138 11.9064 8.91306 11.8628 8.95659Z" fill="white"/>
</g>
<defs>
<clipPath id="clip0_2:24">
<rect width="12" height="12" fill="white"/>
</clipPath>
</defs>
</svg>
