<svg width="22" height="22" viewBox="0 0 22 22" fill="none" xmlns="http://www.w3.org/2000/svg">
<path d="M13.0625 1.91304C12.5155 1.91304 11.9909 2.13034 11.6041 2.51713C11.2173 2.90393 11 3.42853 11 3.97554V6.72554C11.0001 7.152 11.1323 7.56796 11.3786 7.91615C11.6248 8.26434 11.9729 8.52764 12.375 8.66979V10.163C12.375 10.2937 12.4123 10.4216 12.4824 10.5318C12.5526 10.642 12.6526 10.73 12.7709 10.7854C12.8892 10.8408 13.0209 10.8613 13.1504 10.8446C13.28 10.8279 13.4021 10.7746 13.5025 10.691L15.785 8.78804H18.5625C19.1095 8.78804 19.6341 8.57074 20.0209 8.18395C20.4077 7.79715 20.625 7.27255 20.625 6.72554V3.97554C20.625 3.42853 20.4077 2.90393 20.0209 2.51713C19.6341 2.13034 19.1095 1.91304 18.5625 1.91304H13.0625ZM12.375 3.97554C12.375 3.7932 12.4474 3.61834 12.5764 3.4894C12.7053 3.36047 12.8802 3.28804 13.0625 3.28804H18.5625C18.7448 3.28804 18.9197 3.36047 19.0486 3.4894C19.1776 3.61834 19.25 3.7932 19.25 3.97554V6.72554C19.25 6.90788 19.1776 7.08274 19.0486 7.21168C18.9197 7.34061 18.7448 7.41304 18.5625 7.41304H15.5375C15.3767 7.41311 15.221 7.46955 15.0975 7.57254L13.75 8.69454V8.10054C13.75 7.9182 13.6776 7.74334 13.5486 7.6144C13.4197 7.48547 13.2448 7.41304 13.0625 7.41304C12.8802 7.41304 12.7053 7.34061 12.5764 7.21168C12.4474 7.08274 12.375 6.90788 12.375 6.72554V3.97554ZM4.125 8.78804C4.125 8.05869 4.41473 7.35922 4.93046 6.8435C5.44618 6.32777 6.14565 6.03804 6.875 6.03804C7.60435 6.03804 8.30382 6.32777 8.81954 6.8435C9.33527 7.35922 9.625 8.05869 9.625 8.78804C9.625 9.51739 9.33527 10.2169 8.81954 10.7326C8.30382 11.2483 7.60435 11.538 6.875 11.538C6.14565 11.538 5.44618 11.2483 4.93046 10.7326C4.41473 10.2169 4.125 9.51739 4.125 8.78804ZM6.875 7.41304C6.51033 7.41304 6.16059 7.55791 5.90273 7.81577C5.64487 8.07363 5.5 8.42337 5.5 8.78804C5.5 9.15271 5.64487 9.50245 5.90273 9.76031C6.16059 10.0182 6.51033 10.163 6.875 10.163C7.23967 10.163 7.58941 10.0182 7.84727 9.76031C8.10513 9.50245 8.25 9.15271 8.25 8.78804C8.25 8.42337 8.10513 8.07363 7.84727 7.81577C7.58941 7.55791 7.23967 7.41304 6.875 7.41304ZM3.4375 12.913H10.3125C10.8595 12.913 11.3841 13.1303 11.7709 13.5171C12.1577 13.9039 12.375 14.4285 12.375 14.9755C12.375 16.51 11.7439 17.7393 10.7085 18.5712C9.68963 19.3893 8.32287 19.788 6.875 19.788C5.42713 19.788 4.06037 19.3893 3.0415 18.5712C2.0075 17.7393 1.375 16.51 1.375 14.9755C1.375 14.4285 1.5923 13.9039 1.97909 13.5171C2.36589 13.1303 2.89049 12.913 3.4375 12.913V12.913ZM10.3125 14.288H3.4375C3.25516 14.288 3.0803 14.3605 2.95136 14.4894C2.82243 14.6183 2.75 14.7932 2.75 14.9755C2.75 16.0989 3.19688 16.9322 3.90225 17.4987C4.6255 18.0789 5.665 18.413 6.875 18.413C8.085 18.413 9.1245 18.0789 9.84775 17.4987C10.5531 16.9322 11 16.0989 11 14.9755C11 14.7932 10.9276 14.6183 10.7986 14.4894C10.6697 14.3605 10.4948 14.288 10.3125 14.288Z" fill="white"/>
</svg>
