<svg width="20" height="20" viewBox="0 0 20 20" fill="none" xmlns="http://www.w3.org/2000/svg">
<path d="M4.16667 5C4.16667 4.77899 4.25446 4.56702 4.41074 4.41074C4.56702 4.25446 4.77899 4.16667 5 4.16667H6.66667C6.88768 4.16667 7.09964 4.07887 7.25592 3.92259C7.4122 3.76631 7.5 3.55435 7.5 3.33333C7.5 3.11232 7.4122 2.90036 7.25592 2.74408C7.09964 2.5878 6.88768 2.5 6.66667 2.5H5C4.33696 2.5 3.70107 2.76339 3.23223 3.23223C2.76339 3.70107 2.5 4.33696 2.5 5V6.66667C2.5 6.88768 2.5878 7.09964 2.74408 7.25592C2.90036 7.4122 3.11232 7.5 3.33333 7.5C3.55435 7.5 3.76631 7.4122 3.92259 7.25592C4.07887 7.09964 4.16667 6.88768 4.16667 6.66667V5Z" fill="white"/>
<path d="M4.16667 15C4.16667 15.221 4.25446 15.433 4.41074 15.5893C4.56702 15.7455 4.77899 15.8333 5 15.8333H6.66667C6.88768 15.8333 7.09964 15.9211 7.25592 16.0774C7.4122 16.2337 7.5 16.4457 7.5 16.6667C7.5 16.8877 7.4122 17.0996 7.25592 17.2559C7.09964 17.4122 6.88768 17.5 6.66667 17.5H5C4.33696 17.5 3.70107 17.2366 3.23223 16.7678C2.76339 16.2989 2.5 15.663 2.5 15V13.3333C2.5 13.1123 2.5878 12.9004 2.74408 12.7441C2.90036 12.5878 3.11232 12.5 3.33333 12.5C3.55435 12.5 3.76631 12.5878 3.92259 12.7441C4.07887 12.9004 4.16667 13.1123 4.16667 13.3333V15Z" fill="white"/>
<path d="M15 4.16667C15.221 4.16667 15.433 4.25446 15.5893 4.41074C15.7455 4.56702 15.8333 4.77899 15.8333 5V6.66667C15.8333 6.88768 15.9211 7.09964 16.0774 7.25592C16.2337 7.4122 16.4457 7.5 16.6667 7.5C16.8877 7.5 17.0996 7.4122 17.2559 7.25592C17.4122 7.09964 17.5 6.88768 17.5 6.66667V5C17.5 4.33696 17.2366 3.70107 16.7678 3.23223C16.2989 2.76339 15.663 2.5 15 2.5H13.3333C13.1123 2.5 12.9004 2.5878 12.7441 2.74408C12.5878 2.90036 12.5 3.11232 12.5 3.33333C12.5 3.55435 12.5878 3.76631 12.7441 3.92259C12.9004 4.07887 13.1123 4.16667 13.3333 4.16667H15Z" fill="white"/>
<path d="M15.8333 15C15.8333 15.221 15.7455 15.433 15.5893 15.5893C15.433 15.7455 15.221 15.8333 15 15.8333H13.3333C13.1123 15.8333 12.9004 15.9211 12.7441 16.0774C12.5878 16.2337 12.5 16.4457 12.5 16.6667C12.5 16.8877 12.5878 17.0996 12.7441 17.2559C12.9004 17.4122 13.1123 17.5 13.3333 17.5H15C15.663 17.5 16.2989 17.2366 16.7678 16.7678C17.2366 16.2989 17.5 15.663 17.5 15V13.3333C17.5 13.1123 17.4122 12.9004 17.2559 12.7441C17.0996 12.5878 16.8877 12.5 16.6667 12.5C16.4457 12.5 16.2337 12.5878 16.0774 12.7441C15.9211 12.9004 15.8333 13.1123 15.8333 13.3333V15Z" fill="white"/>
</svg>
