<svg width="16" height="16" viewBox="0 0 16 16" fill="none" xmlns="http://www.w3.org/2000/svg">
<path d="M11.5 5.502C11.5 5.76775 11.3944 6.02261 11.2065 6.21052C11.0186 6.39843 10.7637 6.504 10.498 6.504C10.2323 6.504 9.97739 6.39843 9.78948 6.21052C9.60157 6.02261 9.496 5.76775 9.496 5.502C9.496 5.23625 9.60157 4.98139 9.78948 4.79348C9.97739 4.60557 10.2323 4.5 10.498 4.5C10.7637 4.5 11.0186 4.60557 11.2065 4.79348C11.3944 4.98139 11.5 5.23625 11.5 5.502V5.502ZM2 4.5C2 3.83696 2.26339 3.20107 2.73223 2.73223C3.20107 2.26339 3.83696 2 4.5 2H11.5C12.163 2 12.7989 2.26339 13.2678 2.73223C13.7366 3.20107 14 3.83696 14 4.5V11.5C14 12.163 13.7366 12.7989 13.2678 13.2678C12.7989 13.7366 12.163 14 11.5 14H4.5C3.83696 14 3.20107 13.7366 2.73223 13.2678C2.26339 12.7989 2 12.163 2 11.5V4.5ZM4.5 3C4.10218 3 3.72064 3.15804 3.43934 3.43934C3.15804 3.72064 3 4.10218 3 4.5V11.5C3 11.732 3.052 11.95 3.146 12.147L6.798 8.495C7.11681 8.17624 7.54917 7.99716 8 7.99716C8.45083 7.99716 8.88319 8.17624 9.202 8.495L12.854 12.147C12.948 11.951 13 11.732 13 11.5V4.5C13 4.30302 12.9612 4.10796 12.8858 3.92597C12.8104 3.74399 12.6999 3.57863 12.5607 3.43934C12.4214 3.30005 12.256 3.18956 12.074 3.11418C11.892 3.0388 11.697 3 11.5 3H4.5ZM12.147 12.854L8.495 9.202C8.43 9.13699 8.35283 9.08542 8.26789 9.05024C8.18296 9.01506 8.09193 8.99695 8 8.99695C7.90807 8.99695 7.81704 9.01506 7.73211 9.05024C7.64717 9.08542 7.57 9.13699 7.505 9.202L3.853 12.854C4.049 12.948 4.268 13 4.5 13H11.5C11.732 13 11.95 12.947 12.147 12.854Z" fill="white"/>
</svg>
