<svg width="18" height="18" viewBox="0 0 18 18" fill="none" xmlns="http://www.w3.org/2000/svg">
<path d="M10.311 6.747C10.5592 6.747 10.7973 6.64839 10.9729 6.47285C11.1484 6.29732 11.247 6.05924 11.247 5.811C11.247 5.56276 11.1484 5.32468 10.9729 5.14915C10.7973 4.97361 10.5592 4.875 10.311 4.875C10.0628 4.875 9.82468 4.97361 9.64915 5.14915C9.47361 5.32468 9.375 5.56276 9.375 5.811C9.375 6.05924 9.47361 6.29732 9.64915 6.47285C9.82468 6.64839 10.0628 6.747 10.311 6.747V6.747Z" fill="white"/>
<path d="M4.6875 2.25C4.04103 2.25 3.42105 2.50681 2.96393 2.96393C2.50681 3.42105 2.25 4.04103 2.25 4.6875V11.4375C2.25 12.084 2.50681 12.704 2.96393 13.1611C3.42105 13.6182 4.04103 13.875 4.6875 13.875H11.4375C12.084 13.875 12.704 13.6182 13.1611 13.1611C13.6182 12.704 13.875 12.084 13.875 11.4375V4.6875C13.875 4.04103 13.6182 3.42105 13.1611 2.96393C12.704 2.50681 12.084 2.25 11.4375 2.25H4.6875ZM3.375 4.6875C3.375 3.963 3.963 3.375 4.6875 3.375H11.4375C12.162 3.375 12.75 3.963 12.75 4.6875V11.4375C12.75 11.6108 12.7163 11.7765 12.6555 11.928L9.21525 8.70975C8.90263 8.41734 8.49056 8.25466 8.0625 8.25466C7.63444 8.25466 7.22237 8.41734 6.90975 8.70975L3.4695 11.9272C3.4069 11.7716 3.37481 11.6053 3.375 11.4375V4.6875V4.6875ZM8.4465 9.531L11.8253 12.6915C11.703 12.729 11.5725 12.75 11.4375 12.75H4.6875C4.5525 12.75 4.422 12.7298 4.29975 12.6915L7.67775 9.531C7.78197 9.43346 7.91938 9.37918 8.06213 9.37918C8.20487 9.37918 8.34228 9.43346 8.4465 9.531V9.531Z" fill="white"/>
<path d="M6.56251 15.75C6.15301 15.7504 5.75003 15.6475 5.39083 15.4509C5.03164 15.2542 4.72783 14.9702 4.50751 14.625H11.8125C12.5584 14.625 13.2738 14.3287 13.8012 13.8012C14.3287 13.2738 14.625 12.5584 14.625 11.8125V4.50826C14.9701 4.72863 15.2541 5.03245 15.4508 5.39163C15.6474 5.75082 15.7503 6.15377 15.75 6.56325V11.8133C15.75 13.9875 13.9875 15.75 11.8125 15.75H6.56251Z" fill="white"/>
</svg>
