<svg width="16" height="16" viewBox="0 0 16 16" fill="none" xmlns="http://www.w3.org/2000/svg">
<path d="M6.00001 8.80001C6.31827 8.80001 6.62349 8.92643 6.84853 9.15148C7.07358 9.37652 7.20001 9.68175 7.20001 10V13.2C7.20001 13.5183 7.07358 13.8235 6.84853 14.0485C6.62349 14.2736 6.31827 14.4 6.00001 14.4H2.80001C2.48175 14.4 2.17652 14.2736 1.95148 14.0485C1.72643 13.8235 1.60001 13.5183 1.60001 13.2V10C1.60001 9.68175 1.72643 9.37652 1.95148 9.15148C2.17652 8.92643 2.48175 8.80001 2.80001 8.80001H6.00001ZM13.2 8.80001C13.5183 8.80001 13.8235 8.92643 14.0485 9.15148C14.2736 9.37652 14.4 9.68175 14.4 10V13.2C14.4 13.5183 14.2736 13.8235 14.0485 14.0485C13.8235 14.2736 13.5183 14.4 13.2 14.4H10C9.68175 14.4 9.37652 14.2736 9.15148 14.0485C8.92643 13.8235 8.80001 13.5183 8.80001 13.2V10C8.80001 9.68175 8.92643 9.37652 9.15148 9.15148C9.37652 8.92643 9.68175 8.80001 10 8.80001H13.2ZM6.00001 9.60001H2.80001C2.69392 9.60001 2.59218 9.64215 2.51716 9.71716C2.44215 9.79218 2.40001 9.89392 2.40001 10V13.2C2.40001 13.3061 2.44215 13.4078 2.51716 13.4828C2.59218 13.5579 2.69392 13.6 2.80001 13.6H6.00001C6.10609 13.6 6.20783 13.5579 6.28285 13.4828C6.35786 13.4078 6.40001 13.3061 6.40001 13.2V10C6.40001 9.89392 6.35786 9.79218 6.28285 9.71716C6.20783 9.64215 6.10609 9.60001 6.00001 9.60001ZM13.2 9.60001H10C9.89392 9.60001 9.79218 9.64215 9.71716 9.71716C9.64215 9.79218 9.60001 9.89392 9.60001 10V13.2C9.60001 13.3061 9.64215 13.4078 9.71716 13.4828C9.79218 13.5579 9.89392 13.6 10 13.6H13.2C13.3061 13.6 13.4078 13.5579 13.4828 13.4828C13.5579 13.4078 13.6 13.3061 13.6 13.2V10C13.6 9.89392 13.5579 9.79218 13.4828 9.71716C13.4078 9.64215 13.3061 9.60001 13.2 9.60001ZM6.00001 1.60001C6.31827 1.60001 6.62349 1.72643 6.84853 1.95148C7.07358 2.17652 7.20001 2.48175 7.20001 2.80001V6.00001C7.20001 6.31827 7.07358 6.62349 6.84853 6.84853C6.62349 7.07358 6.31827 7.20001 6.00001 7.20001H2.80001C2.48175 7.20001 2.17652 7.07358 1.95148 6.84853C1.72643 6.62349 1.60001 6.31827 1.60001 6.00001V2.80001C1.60001 2.48175 1.72643 2.17652 1.95148 1.95148C2.17652 1.72643 2.48175 1.60001 2.80001 1.60001H6.00001ZM13.2 1.60001C13.5183 1.60001 13.8235 1.72643 14.0485 1.95148C14.2736 2.17652 14.4 2.48175 14.4 2.80001V6.00001C14.4 6.31827 14.2736 6.62349 14.0485 6.84853C13.8235 7.07358 13.5183 7.20001 13.2 7.20001H10C9.68175 7.20001 9.37652 7.07358 9.15148 6.84853C8.92643 6.62349 8.80001 6.31827 8.80001 6.00001V2.80001C8.80001 2.48175 8.92643 2.17652 9.15148 1.95148C9.37652 1.72643 9.68175 1.60001 10 1.60001H13.2ZM6.00001 2.40001H2.80001C2.69392 2.40001 2.59218 2.44215 2.51716 2.51716C2.44215 2.59218 2.40001 2.69392 2.40001 2.80001V6.00001C2.40001 6.10609 2.44215 6.20783 2.51716 6.28285C2.59218 6.35786 2.69392 6.40001 2.80001 6.40001H6.00001C6.10609 6.40001 6.20783 6.35786 6.28285 6.28285C6.35786 6.20783 6.40001 6.10609 6.40001 6.00001V2.80001C6.40001 2.69392 6.35786 2.59218 6.28285 2.51716C6.20783 2.44215 6.10609 2.40001 6.00001 2.40001ZM13.2 2.40001H10C9.89392 2.40001 9.79218 2.44215 9.71716 2.51716C9.64215 2.59218 9.60001 2.69392 9.60001 2.80001V6.00001C9.60001 6.10609 9.64215 6.20783 9.71716 6.28285C9.79218 6.35786 9.89392 6.40001 10 6.40001H13.2C13.3061 6.40001 13.4078 6.35786 13.4828 6.28285C13.5579 6.20783 13.6 6.10609 13.6 6.00001V2.80001C13.6 2.69392 13.5579 2.59218 13.4828 2.51716C13.4078 2.44215 13.3061 2.40001 13.2 2.40001Z" fill="white"/>
</svg>
