<svg width="18" height="18" viewBox="0 0 18 18" fill="none" xmlns="http://www.w3.org/2000/svg">
<path d="M14.4 10.818C14.4 11.768 14.2141 12.7087 13.8528 13.5873L13.3263 14.8662C13.1203 15.3663 12.7442 15.7776 12.2643 16.0272C12.0251 16.1521 11.7593 16.2176 11.4894 16.218H9.19801C8.85638 16.218 8.52077 16.128 8.22499 15.9571C7.92922 15.7861 7.68371 15.5402 7.51321 15.2442C7.06321 14.4639 6.59971 13.7106 5.97151 13.0572L4.77631 11.8116C4.37851 11.3976 3.90781 11.0484 3.44161 10.7028C3.26161 10.5687 3.08161 10.4364 2.90881 10.3005C2.84383 10.2498 2.79125 10.1849 2.75507 10.1108C2.71889 10.0368 2.70006 9.95543 2.70001 9.873C2.70001 9.1944 3.18241 8.4555 3.79531 8.262C4.61431 7.9866 5.41171 8.0703 6.18211 8.4555L6.30001 8.5185V4.05C6.29992 3.82967 6.35375 3.61266 6.45681 3.41792C6.55988 3.22318 6.70904 3.05662 6.89128 2.93279C7.07352 2.80896 7.2833 2.73162 7.50231 2.70751C7.72132 2.6834 7.9429 2.71327 8.14771 2.7945C8.22572 2.50889 8.39545 2.25685 8.63077 2.07718C8.86609 1.89751 9.15395 1.80019 9.45001 1.80019C9.74608 1.80019 10.0339 1.89751 10.2693 2.07718C10.5046 2.25685 10.6743 2.50889 10.7523 2.7945C10.9571 2.71327 11.1787 2.6834 11.3977 2.70751C11.6167 2.73162 11.8265 2.80896 12.0087 2.93279C12.191 3.05662 12.3401 3.22318 12.4432 3.41792C12.5463 3.61266 12.6001 3.82967 12.6 4.05V4.1265C12.8037 4.05449 13.0217 4.03241 13.2357 4.06211C13.4496 4.09182 13.6534 4.17245 13.8297 4.29722C14.0061 4.422 14.1499 4.58727 14.2492 4.77916C14.3484 4.97106 14.4001 5.18396 14.4 5.4V10.818ZM10.8 4.05V7.65C10.8 7.76934 10.7526 7.8838 10.6682 7.9682C10.5838 8.05259 10.4694 8.1 10.35 8.1C10.2307 8.1 10.1162 8.05259 10.0318 7.9682C9.94742 7.8838 9.90001 7.76934 9.90001 7.65V3.15C9.90001 3.03065 9.8526 2.91619 9.76821 2.8318C9.68382 2.74741 9.56936 2.7 9.45001 2.7C9.33067 2.7 9.21621 2.74741 9.13181 2.8318C9.04742 2.91619 9.00001 3.03065 9.00001 3.15V7.65C9.00001 7.76934 8.9526 7.8838 8.86821 7.9682C8.78382 8.05259 8.66936 8.1 8.55001 8.1C8.43067 8.1 8.31621 8.05259 8.23181 7.9682C8.14742 7.8838 8.10001 7.76934 8.10001 7.65V4.05C8.10001 3.93065 8.0526 3.81619 7.96821 3.7318C7.88382 3.64741 7.76936 3.6 7.65001 3.6C7.53066 3.6 7.41621 3.64741 7.33181 3.7318C7.24742 3.81619 7.20001 3.93065 7.20001 4.05V9.45C7.20417 9.54077 7.1807 9.63067 7.1327 9.70782C7.08469 9.78497 7.01441 9.84575 6.93114 9.88212C6.84787 9.91849 6.75552 9.92875 6.6663 9.91153C6.57708 9.89431 6.49517 9.85044 6.43141 9.7857L6.42421 9.7785C6.22621 9.5805 6.03361 9.3879 5.77981 9.261C5.15251 8.9469 3.77911 8.7435 3.61351 9.7092C3.77191 9.8325 3.93391 9.954 4.09681 10.0764C4.55941 10.4229 5.02741 10.7739 5.42521 11.1879L6.62041 12.4335C7.29901 13.14 7.80751 13.9518 8.29261 14.7942C8.47891 15.1182 8.82361 15.318 9.19801 15.318H11.4894C11.6145 15.318 11.7378 15.2874 11.8494 15.2298C12.1401 15.0777 12.3687 14.8275 12.4938 14.5242L13.0203 13.2453C13.3371 12.4753 13.5001 11.6507 13.5 10.818V5.4C13.5 5.28065 13.4526 5.16619 13.3682 5.0818C13.2838 4.99741 13.1694 4.95 13.05 4.95C12.9307 4.95 12.8162 4.99741 12.7318 5.0818C12.6474 5.16619 12.6 5.28065 12.6 5.4V8.55C12.6 8.66934 12.5526 8.7838 12.4682 8.8682C12.3838 8.95259 12.2694 9 12.15 9C12.0307 9 11.9162 8.95259 11.8318 8.8682C11.7474 8.7838 11.7 8.66934 11.7 8.55V4.05C11.7 3.93065 11.6526 3.81619 11.5682 3.7318C11.4838 3.64741 11.3694 3.6 11.25 3.6C11.1307 3.6 11.0162 3.64741 10.9318 3.7318C10.8474 3.81619 10.8 3.93065 10.8 4.05Z" fill="white"/>
</svg>
