<svg width="18" height="18" viewBox="0 0 18 18" fill="none" xmlns="http://www.w3.org/2000/svg">
<path d="M10.5 3.18975C10.5 2.99084 10.579 2.80007 10.7197 2.65942C10.8603 2.51877 11.0511 2.43975 11.25 2.43975C11.4489 2.43975 11.6397 2.51877 11.7803 2.65942C11.921 2.80007 12 2.99084 12 3.18975V8.24925C12 8.34871 12.0395 8.44409 12.1098 8.51441C12.1802 8.58474 12.2755 8.62425 12.375 8.62425C12.4745 8.62425 12.5698 8.58474 12.6402 8.51441C12.7105 8.44409 12.75 8.34871 12.75 8.24925V4.5C12.75 4.30109 12.829 4.11032 12.9697 3.96967C13.1103 3.82902 13.3011 3.75 13.5 3.75C13.6989 3.75 13.8897 3.82902 14.0303 3.96967C14.171 4.11032 14.25 4.30109 14.25 4.5V11.0662C14.25 12.7005 13.374 14.4472 12.8145 15.4065C12.3975 16.1228 11.6295 16.5007 10.8473 16.5007H9.22125C8.76853 16.5007 8.32476 16.3746 7.93967 16.1366C7.55458 15.8985 7.2434 15.558 7.041 15.153L6.94125 14.9535C6.62565 14.3223 6.23208 13.7332 5.76975 13.2L4.11075 11.286L2.4675 10.008C2.39962 9.95529 2.34473 9.88773 2.30702 9.8105C2.26932 9.73328 2.24981 9.64844 2.25 9.5625C2.25 9.19875 2.445 8.92875 2.694 8.7675C2.916 8.62425 3.1815 8.56275 3.4155 8.535C3.8925 8.47875 4.473 8.5365 4.98225 8.6355C5.33903 8.70842 5.68235 8.83619 6 9.01425V3.18975C6 2.99084 6.07902 2.80007 6.21967 2.65942C6.36032 2.51877 6.55109 2.43975 6.75 2.43975C6.94891 2.43975 7.13968 2.51877 7.28033 2.65942C7.42098 2.80007 7.5 2.99084 7.5 3.18975V7.875C7.5 7.97446 7.53951 8.06984 7.60984 8.14017C7.68016 8.21049 7.77555 8.25 7.875 8.25C7.97446 8.25 8.06984 8.21049 8.14017 8.14017C8.21049 8.06984 8.25 7.97446 8.25 7.875V2.25C8.25 2.05109 8.32902 1.86032 8.46967 1.71967C8.61032 1.57902 8.80109 1.5 9 1.5C9.19891 1.5 9.38968 1.57902 9.53033 1.71967C9.67098 1.86032 9.75 2.05109 9.75 2.25V7.875C9.75 7.97446 9.78951 8.06984 9.85984 8.14017C9.93016 8.21049 10.0255 8.25 10.125 8.25C10.2245 8.25 10.3198 8.21049 10.3902 8.14017C10.4605 8.06984 10.5 7.97446 10.5 7.875V3.18975Z" fill="white"/>
</svg>
