<svg width="16" height="16" viewBox="0 0 16 16" fill="none" xmlns="http://www.w3.org/2000/svg">
<path d="M7.99999 4.71428C7.659 4.71428 7.33197 4.57882 7.09086 4.3377C6.84974 4.09659 6.71428 3.76956 6.71428 3.42857C6.71428 3.08757 6.84974 2.76055 7.09086 2.51943C7.33197 2.27831 7.659 2.14285 7.99999 2.14285C8.34099 2.14285 8.66801 2.27831 8.90913 2.51943C9.15025 2.76055 9.28571 3.08757 9.28571 3.42857C9.28571 3.76956 9.15025 4.09659 8.90913 4.3377C8.66801 4.57882 8.34099 4.71428 7.99999 4.71428Z" fill="white"/>
<path d="M7.99999 9.28571C7.83115 9.28571 7.66396 9.25245 7.50797 9.18784C7.35198 9.12323 7.21025 9.02852 7.09086 8.90913C6.97147 8.78974 6.87676 8.64801 6.81215 8.49202C6.74754 8.33603 6.71428 8.16884 6.71428 7.99999C6.71428 7.83115 6.74754 7.66396 6.81215 7.50797C6.87676 7.35198 6.97147 7.21025 7.09086 7.09086C7.21025 6.97147 7.35198 6.87676 7.50797 6.81215C7.66396 6.74754 7.83115 6.71428 7.99999 6.71428C8.34099 6.71428 8.66801 6.84974 8.90913 7.09086C9.15025 7.33197 9.28571 7.659 9.28571 7.99999C9.28571 8.34099 9.15025 8.66801 8.90913 8.90913C8.66801 9.15025 8.34099 9.28571 7.99999 9.28571Z" fill="white"/>
<path d="M6.71428 12.5714C6.71428 12.7403 6.74754 12.9075 6.81215 13.0634C6.87676 13.2194 6.97147 13.3612 7.09086 13.4806C7.21025 13.5999 7.35198 13.6947 7.50797 13.7593C7.66396 13.8239 7.83115 13.8571 7.99999 13.8571C8.16884 13.8571 8.33603 13.8239 8.49202 13.7593C8.64801 13.6947 8.78974 13.5999 8.90913 13.4806C9.02852 13.3612 9.12323 13.2194 9.18784 13.0634C9.25245 12.9075 9.28571 12.7403 9.28571 12.5714C9.28571 12.2304 9.15025 11.9034 8.90913 11.6623C8.66801 11.4212 8.34099 11.2857 7.99999 11.2857C7.659 11.2857 7.33197 11.4212 7.09086 11.6623C6.84974 11.9034 6.71428 12.2304 6.71428 12.5714Z" fill="white"/>
</svg>
