<svg width="16" height="16" viewBox="0 0 16 16" fill="none" xmlns="http://www.w3.org/2000/svg">
<path d="M8 4.71428C7.65901 4.71428 7.33198 4.57882 7.09086 4.3377C6.84975 4.09659 6.71429 3.76956 6.71429 3.42857C6.71429 3.08757 6.84975 2.76055 7.09086 2.51943C7.33198 2.27831 7.65901 2.14285 8 2.14285C8.34099 2.14285 8.66802 2.27831 8.90914 2.51943C9.15026 2.76055 9.28572 3.08757 9.28572 3.42857C9.28572 3.76956 9.15026 4.09659 8.90914 4.3377C8.66802 4.57882 8.34099 4.71428 8 4.71428V4.71428Z" fill="white"/>
<path d="M8 9.28571C7.83116 9.28571 7.66397 9.25245 7.50798 9.18784C7.35199 9.12323 7.21025 9.02852 7.09086 8.90913C6.97147 8.78974 6.87677 8.64801 6.81216 8.49202C6.74754 8.33603 6.71429 8.16884 6.71429 7.99999C6.71429 7.83115 6.74754 7.66396 6.81216 7.50797C6.87677 7.35198 6.97147 7.21025 7.09086 7.09086C7.21025 6.97147 7.35199 6.87676 7.50798 6.81215C7.66397 6.74754 7.83116 6.71428 8 6.71428C8.34099 6.71428 8.66802 6.84974 8.90914 7.09086C9.15026 7.33197 9.28572 7.659 9.28572 7.99999C9.28572 8.34099 9.15026 8.66801 8.90914 8.90913C8.66802 9.15025 8.34099 9.28571 8 9.28571V9.28571Z" fill="white"/>
<path d="M6.71429 12.5714C6.71429 12.7403 6.74754 12.9075 6.81216 13.0634C6.87677 13.2194 6.97147 13.3612 7.09086 13.4806C7.21025 13.5999 7.35199 13.6947 7.50798 13.7593C7.66397 13.8239 7.83116 13.8571 8 13.8571C8.16884 13.8571 8.33603 13.8239 8.49202 13.7593C8.64801 13.6947 8.78975 13.5999 8.90914 13.4806C9.02853 13.3612 9.12323 13.2194 9.18785 13.0634C9.25246 12.9075 9.28572 12.7403 9.28572 12.5714C9.28572 12.2304 9.15026 11.9034 8.90914 11.6623C8.66802 11.4212 8.34099 11.2857 8 11.2857C7.65901 11.2857 7.33198 11.4212 7.09086 11.6623C6.84975 11.9034 6.71429 12.2304 6.71429 12.5714V12.5714Z" fill="white"/>
</svg>
