<svg width="18" height="18" viewBox="0 0 18 18" fill="none" xmlns="http://www.w3.org/2000/svg">
<path d="M4.5 7.5C4.63261 7.5 4.75979 7.55268 4.85355 7.64645C4.94732 7.74021 5 7.86739 5 8V9C5 10.0609 5.42143 11.0783 6.17157 11.8284C6.92172 12.5786 7.93913 13 9 13C10.0609 13 11.0783 12.5786 11.8284 11.8284C12.5786 11.0783 13 10.0609 13 9V8C13 7.86739 13.0527 7.74021 13.1464 7.64645C13.2402 7.55268 13.3674 7.5 13.5 7.5C13.6326 7.5 13.7598 7.55268 13.8536 7.64645C13.9473 7.74021 14 7.86739 14 8V9C14 10.2395 13.5396 11.4349 12.7081 12.3541C11.8766 13.2734 10.7333 13.851 9.5 13.975V16H12.5C12.6326 16 12.7598 16.0527 12.8536 16.1464C12.9473 16.2402 13 16.3674 13 16.5C13 16.6326 12.9473 16.7598 12.8536 16.8536C12.7598 16.9473 12.6326 17 12.5 17H5.5C5.36739 17 5.24021 16.9473 5.14645 16.8536C5.05268 16.7598 5 16.6326 5 16.5C5 16.3674 5.05268 16.2402 5.14645 16.1464C5.24021 16.0527 5.36739 16 5.5 16H8.5V13.975C7.26668 13.851 6.12338 13.2734 5.29188 12.3541C4.46038 11.4349 3.99998 10.2395 4 9V8C4 7.86739 4.05268 7.74021 4.14645 7.64645C4.24021 7.55268 4.36739 7.5 4.5 7.5Z" fill="#2A2A33"/>
<path d="M11 9C11 9.53043 10.7893 10.0391 10.4142 10.4142C10.0391 10.7893 9.53043 11 9 11C8.46957 11 7.96086 10.7893 7.58579 10.4142C7.21071 10.0391 7 9.53043 7 9V4C7 3.46957 7.21071 2.96086 7.58579 2.58579C7.96086 2.21071 8.46957 2 9 2C9.53043 2 10.0391 2.21071 10.4142 2.58579C10.7893 2.96086 11 3.46957 11 4V9ZM9 1C8.20435 1 7.44129 1.31607 6.87868 1.87868C6.31607 2.44129 6 3.20435 6 4V9C6 9.79565 6.31607 10.5587 6.87868 11.1213C7.44129 11.6839 8.20435 12 9 12C9.79565 12 10.5587 11.6839 11.1213 11.1213C11.6839 10.5587 12 9.79565 12 9V4C12 3.20435 11.6839 2.44129 11.1213 1.87868C10.5587 1.31607 9.79565 1 9 1V1Z" fill="#2A2A33"/>
</svg>
