<svg width="18" height="18" viewBox="0 0 18 18" fill="none" xmlns="http://www.w3.org/2000/svg">
<path d="M14.354 8.9972C14.354 9.5612 14.26 10.1042 14.088 10.6102L13.274 9.7962C13.3273 9.53321 13.3541 9.26554 13.354 8.9972V7.9972C13.354 7.8646 13.4067 7.73742 13.5005 7.64365C13.5942 7.54988 13.7214 7.4972 13.854 7.4972C13.9866 7.4972 14.1138 7.54988 14.2076 7.64365C14.3013 7.73742 14.354 7.8646 14.354 7.9972V8.9972ZM9.354 12.9972C10.172 12.9972 10.932 12.7522 11.566 12.3302L12.284 13.0492C11.5702 13.5669 10.7315 13.8854 9.854 13.9722V15.9972H12.854C12.9866 15.9972 13.1138 16.0499 13.2076 16.1437C13.3013 16.2374 13.354 16.3646 13.354 16.4972C13.354 16.6298 13.3013 16.757 13.2076 16.8508C13.1138 16.9445 12.9866 16.9972 12.854 16.9972H5.854C5.7214 16.9972 5.59422 16.9445 5.50045 16.8508C5.40668 16.757 5.354 16.6298 5.354 16.4972C5.354 16.3646 5.40668 16.2374 5.50045 16.1437C5.59422 16.0499 5.7214 15.9972 5.854 15.9972H8.854V13.9722C7.62069 13.8483 6.47738 13.2706 5.64588 12.3513C4.81439 11.4321 4.35399 10.2367 4.354 8.9972V7.9972C4.354 7.8646 4.40668 7.73742 4.50045 7.64365C4.59422 7.54988 4.7214 7.4972 4.854 7.4972C4.98661 7.4972 5.11379 7.54988 5.20756 7.64365C5.30133 7.73742 5.354 7.8646 5.354 7.9972V8.9972C5.354 10.0581 5.77543 11.0755 6.52558 11.8256C7.27572 12.5758 8.29314 12.9972 9.354 12.9972ZM12.354 3.9972V8.8762L11.354 7.8762V3.9972C11.3563 3.47546 11.1546 2.97348 10.792 2.59834C10.4294 2.2232 9.93456 2.00462 9.41304 1.98922C8.89152 1.97382 8.38464 2.16283 8.00052 2.51593C7.61641 2.86902 7.38548 3.35824 7.357 3.8792L6.512 3.0342C6.74095 2.36145 7.2012 1.79176 7.81084 1.42657C8.42047 1.06138 9.13992 0.924382 9.84111 1.03997C10.5423 1.15555 11.1797 1.51621 11.6399 2.05775C12.1 2.59929 12.3531 3.28656 12.354 3.9972Z" fill="#2A2A33"/>
<path d="M10.84 11.6042L10.092 10.8562C9.78862 10.9767 9.46037 11.021 9.1359 10.9854C8.81143 10.9498 8.50061 10.8354 8.23055 10.652C7.9605 10.4686 7.73943 10.222 7.58664 9.93353C7.43385 9.64508 7.35398 9.32362 7.354 8.9972V8.1192L6.354 7.1192V8.9972C6.35384 9.52252 6.49163 10.0387 6.75358 10.494C7.01552 10.9494 7.39244 11.328 7.84663 11.5919C8.30082 11.8559 8.81636 11.9959 9.34167 11.9981C9.86698 12.0002 10.3837 11.8644 10.84 11.6042ZM3 2.3512L15 14.3512L15.708 13.6432L3.708 1.6432L3 2.3512Z" fill="#2A2A33"/>
</svg>
