<svg width="20" height="20" viewBox="0 0 20 20" fill="none" xmlns="http://www.w3.org/2000/svg">
<path d="M10.496 16.8032L16.741 10.4992C17.5512 9.67224 18.0035 8.55981 18.0003 7.40217C17.9971 6.24453 17.5387 5.1346 16.724 4.31215C16.3243 3.90448 15.8476 3.58035 15.3215 3.35861C14.7955 3.13688 14.2305 3.02198 13.6596 3.02058C13.0887 3.01918 12.5233 3.13133 11.9961 3.35048C11.469 3.56964 10.9906 3.89144 10.589 4.29715L9.993 4.90015L9.388 4.29015C8.98889 3.88302 8.51282 3.5593 7.98747 3.33781C7.46212 3.11633 6.89798 3.0015 6.32785 3.00001C5.75772 2.99853 5.19299 3.1104 4.66649 3.32914C4.13999 3.54788 3.66223 3.86911 3.261 4.27415C1.573 5.97915 1.581 8.75015 3.277 10.4632L9.554 16.8032C9.814 17.0662 10.236 17.0662 10.496 16.8032ZM11.3 5.00015C11.6087 4.68853 11.9764 4.44146 12.3815 4.27334C12.7867 4.10521 13.2212 4.01939 13.6599 4.02088C14.0985 4.02237 14.5325 4.11114 14.9365 4.28201C15.3405 4.45288 15.7064 4.70244 16.013 5.01615C16.6422 5.65149 16.9965 6.50869 16.9995 7.40288C17.0025 8.29707 16.654 9.15661 16.029 9.79615V9.79815L10.025 15.8582L3.987 9.75915C2.674 8.43315 2.673 6.28915 3.972 4.97715C4.28032 4.66611 4.64744 4.4195 5.05197 4.2517C5.45651 4.0839 5.89039 3.99825 6.32835 3.99974C6.76631 4.00122 7.1996 4.08982 7.60299 4.26037C8.00637 4.43092 8.3718 4.68002 8.678 4.99315L9.638 5.96315C9.6845 6.01017 9.73986 6.04749 9.80089 6.07297C9.86191 6.09844 9.92738 6.11156 9.9935 6.11156C10.0596 6.11156 10.1251 6.09844 10.1861 6.07297C10.2471 6.04749 10.3025 6.01017 10.349 5.96315L11.3 5.00015Z" fill="white"/>
</svg>
