<svg width="20" height="20" viewBox="0 0 20 20" fill="none" xmlns="http://www.w3.org/2000/svg">
<path d="M10.496 16.803L16.741 10.499C17.5512 9.67209 18.0035 8.55966 18.0003 7.40202C17.9971 6.24437 17.5387 5.13445 16.724 4.312C16.3243 3.90433 15.8476 3.58019 15.3215 3.35846C14.7955 3.13673 14.2305 3.02182 13.6596 3.02043C13.0887 3.01903 12.5233 3.13117 11.9961 3.35033C11.469 3.56949 10.9906 3.89128 10.589 4.297L9.993 4.9L9.388 4.29C8.98889 3.88286 8.51282 3.55914 7.98747 3.33766C7.46212 3.11618 6.89798 3.00135 6.32785 2.99986C5.75772 2.99837 5.19299 3.11025 4.66649 3.32899C4.13999 3.54772 3.66223 3.86896 3.261 4.274C1.573 5.979 1.581 8.75 3.277 10.463L9.554 16.803C9.814 17.066 10.236 17.066 10.496 16.803ZM11.3 5C11.6087 4.68838 11.9764 4.44131 12.3815 4.27318C12.7867 4.10506 13.2212 4.01924 13.6599 4.02073C14.0985 4.02222 14.5325 4.11098 14.9365 4.28186C15.3405 4.45273 15.7064 4.70229 16.013 5.016C16.6422 5.65134 16.9965 6.50853 16.9995 7.40272C17.0025 8.29691 16.654 9.15646 16.029 9.796V9.798L10.025 15.858L3.987 9.759C2.674 8.433 2.673 6.289 3.972 4.977C4.28032 4.66595 4.64744 4.41935 5.05197 4.25155C5.45651 4.08374 5.89039 3.99809 6.32835 3.99958C6.76631 4.00107 7.1996 4.08967 7.60299 4.26022C8.00637 4.43077 8.3718 4.67986 8.678 4.993L9.638 5.963C9.6845 6.01001 9.73986 6.04734 9.80089 6.07281C9.86191 6.09829 9.92738 6.1114 9.9935 6.1114C10.0596 6.1114 10.1251 6.09829 10.1861 6.07281C10.2471 6.04734 10.3025 6.01001 10.349 5.963L11.3 5Z" fill="white"/>
</svg>
