<svg width="16" height="16" viewBox="0 0 16 16" fill="none" xmlns="http://www.w3.org/2000/svg">
<path d="M8.19999 12.25C8.73185 12.25 9.25849 12.1452 9.74986 11.9417C10.2412 11.7382 10.6877 11.4399 11.0638 11.0638C11.4399 10.6877 11.7382 10.2412 11.9417 9.74986C12.1452 9.25849 12.25 8.73185 12.25 8.19999C12.25 7.66814 12.1452 7.14149 11.9417 6.65013C11.7382 6.15876 11.4399 5.71229 11.0638 5.33621C10.6877 4.96013 10.2412 4.66181 9.74986 4.45828C9.25849 4.25475 8.73185 4.14999 8.19999 4.14999C7.12587 4.14999 6.09573 4.57669 5.33621 5.33621C4.57669 6.09573 4.14999 7.12587 4.14999 8.19999C4.14999 9.27412 4.57669 10.3043 5.33621 11.0638C6.09573 11.8233 7.12587 12.25 8.19999 12.25V12.25Z" fill="white"/>
<path d="M8.2 1C6.29044 1 4.45909 1.75857 3.10883 3.10883C1.75857 4.45909 1 6.29044 1 8.2C1 10.1096 1.75857 11.9409 3.10883 13.2912C4.45909 14.6414 6.29044 15.4 8.2 15.4C10.1096 15.4 11.9409 14.6414 13.2912 13.2912C14.6414 11.9409 15.4 10.1096 15.4 8.2C15.4 6.29044 14.6414 4.45909 13.2912 3.10883C11.9409 1.75857 10.1096 1 8.2 1V1ZM1.9 8.2C1.9 7.37267 2.06295 6.55345 2.37956 5.78909C2.69616 5.02474 3.16022 4.33024 3.74523 3.74523C4.33024 3.16022 5.02474 2.69616 5.78909 2.37956C6.55345 2.06295 7.37267 1.9 8.2 1.9C9.02733 1.9 9.84655 2.06295 10.6109 2.37956C11.3753 2.69616 12.0698 3.16022 12.6548 3.74523C13.2398 4.33024 13.7038 5.02474 14.0204 5.78909C14.337 6.55345 14.5 7.37267 14.5 8.2C14.5 9.87086 13.8363 11.4733 12.6548 12.6548C11.4733 13.8363 9.87086 14.5 8.2 14.5C6.52914 14.5 4.92671 13.8363 3.74523 12.6548C2.56375 11.4733 1.9 9.87086 1.9 8.2Z" fill="white"/>
</svg>
