<svg width="18" height="18" viewBox="0 0 18 18" fill="none" xmlns="http://www.w3.org/2000/svg">
<path d="M8.99997 6.10715C8.62008 6.10715 8.2439 6.18197 7.89293 6.32735C7.54195 6.47273 7.22304 6.68582 6.95442 6.95445C6.68579 7.22307 6.4727 7.54198 6.32732 7.89296C6.18194 8.24393 6.10712 8.62011 6.10712 9C6.10712 9.3799 6.18194 9.75608 6.32732 10.1071C6.4727 10.458 6.68579 10.7769 6.95442 11.0456C7.22304 11.3142 7.54195 11.5273 7.89293 11.6727C8.2439 11.818 8.62008 11.8929 8.99997 11.8929C9.76721 11.8929 10.503 11.5881 11.0455 11.0456C11.588 10.503 11.8928 9.76724 11.8928 9C11.8928 8.23277 11.588 7.49696 11.0455 6.95445C10.503 6.41193 9.76721 6.10715 8.99997 6.10715V6.10715ZM7.0714 9C7.0714 8.74674 7.12129 8.49596 7.21821 8.26197C7.31513 8.02799 7.45718 7.81538 7.63627 7.6363C7.81535 7.45721 8.02796 7.31516 8.26194 7.21824C8.49593 7.12132 8.74671 7.07143 8.99997 7.07143C9.25324 7.07143 9.50402 7.12132 9.73801 7.21824C9.97199 7.31516 10.1846 7.45721 10.3637 7.6363C10.5428 7.81538 10.6848 8.02799 10.7817 8.26197C10.8787 8.49596 10.9285 8.74674 10.9285 9C10.9285 9.51149 10.7254 10.002 10.3637 10.3637C10.002 10.7254 9.51146 10.9286 8.99997 10.9286C8.48848 10.9286 7.99794 10.7254 7.63627 10.3637C7.27459 10.002 7.0714 9.51149 7.0714 9V9Z" fill="white"/>
<path d="M13.9564 14.3968L12.8456 13.9089C12.6875 13.8402 12.5155 13.8094 12.3434 13.819C12.1712 13.8286 12.0038 13.8783 11.8543 13.9642C11.5541 14.1377 11.3625 14.4444 11.3246 14.7896L11.1908 15.9982C11.1774 16.1196 11.1267 16.2339 11.0458 16.3255C10.965 16.4171 10.8578 16.4815 10.7389 16.5099C9.59522 16.7825 8.40347 16.7825 7.25977 16.5099C7.14104 16.4814 7.03399 16.4169 6.95322 16.3254C6.87246 16.2338 6.82192 16.1195 6.80849 15.9982L6.67477 14.7915C6.65557 14.6217 6.59684 14.4587 6.50328 14.3157C6.40973 14.1727 6.28396 14.0536 6.13606 13.968C5.98831 13.8826 5.82255 13.833 5.65215 13.8234C5.48174 13.8138 5.31147 13.8444 5.15506 13.9127L4.0442 14.4006C3.93191 14.45 3.80705 14.4632 3.68692 14.4384C3.56679 14.4137 3.45733 14.3522 3.3737 14.2624C2.57416 13.4056 1.97919 12.3788 1.63349 11.259C1.59714 11.1413 1.59828 11.0152 1.63674 10.8982C1.67521 10.7812 1.74911 10.679 1.8482 10.6059L2.82984 9.88072C2.96804 9.77919 3.0804 9.64656 3.15785 9.49356C3.23529 9.34057 3.27565 9.17149 3.27565 9.00001C3.27565 8.82852 3.23529 8.65945 3.15785 8.50645C3.0804 8.35345 2.96804 8.22082 2.82984 8.11929L1.8482 7.39608C1.74898 7.32287 1.675 7.2206 1.63653 7.10344C1.59805 6.98629 1.59699 6.86007 1.63349 6.74229C1.9799 5.62351 2.57531 4.59776 3.37499 3.74208C3.4587 3.65247 3.56819 3.59109 3.68831 3.56644C3.80844 3.5418 3.93325 3.5551 4.04549 3.60451L5.1512 4.09115C5.30853 4.15886 5.47952 4.18881 5.6505 4.17859C5.82148 4.16836 5.98769 4.11826 6.13583 4.03229C6.28397 3.94632 6.40993 3.82686 6.50363 3.68348C6.59732 3.5401 6.65616 3.37677 6.67542 3.20658L6.81042 1.99929C6.82401 1.87648 6.87561 1.76097 6.95801 1.66889C7.04041 1.5768 7.1495 1.51275 7.27006 1.48565C7.83642 1.35965 8.41434 1.29279 9.00834 1.28572C9.5882 1.29215 10.1655 1.35965 10.7312 1.48565C10.8519 1.51269 10.9611 1.57682 11.0435 1.66905C11.126 1.76127 11.1775 1.87697 11.1908 1.99994L11.3252 3.20722C11.3542 3.47496 11.4809 3.72259 11.6812 3.90266C11.8814 4.08273 12.141 4.18258 12.4103 4.18308C12.5601 4.18308 12.7086 4.15158 12.8475 4.09051L13.9532 3.60386C14.0654 3.55445 14.1902 3.54115 14.3104 3.5658C14.4305 3.59045 14.54 3.65182 14.6237 3.74144C15.4232 4.59715 16.0184 5.62291 16.3646 6.74165C16.401 6.85928 16.3999 6.98532 16.3616 7.10233C16.3232 7.21934 16.2495 7.32154 16.1505 7.39479L15.1701 8.11929C14.8905 8.32501 14.7214 8.65222 14.7214 9.00001C14.7214 9.34715 14.8905 9.67436 15.1708 9.88072L16.1518 10.6046C16.3549 10.755 16.4411 11.0173 16.3665 11.2584C16.0203 12.377 15.4254 13.4027 14.6263 14.2586C14.5426 14.3483 14.4332 14.4098 14.3131 14.4346C14.1929 14.4593 14.0681 14.4461 13.9558 14.3968H13.9564ZM10.4548 14.2695C10.6082 13.7891 10.9347 13.3829 11.3708 13.1297C11.6514 12.968 11.966 12.8745 12.2894 12.8565C12.6127 12.8385 12.9358 12.8966 13.2326 13.0262L14.0966 13.4055C14.6515 12.7629 15.0811 12.022 15.363 11.2211L14.5986 10.6573V10.6566C14.3384 10.4656 14.1267 10.2161 13.9805 9.92822C13.8344 9.64036 13.7578 9.3222 13.7571 8.99936C13.7571 8.33915 14.0766 7.72651 14.5973 7.34336L14.5986 7.34272L15.3617 6.77894C15.0796 5.97818 14.6498 5.23744 14.0946 4.59515L13.2377 4.97186L13.2364 4.97251C12.9754 5.08822 12.6945 5.14736 12.4097 5.14736C11.9033 5.1466 11.4149 4.95917 11.038 4.62092C10.661 4.28267 10.4221 3.81734 10.3667 3.31394V3.31265L10.2619 2.37408C9.84836 2.29706 9.42897 2.25555 9.00834 2.25001C8.57506 2.25579 8.15334 2.29758 7.7387 2.37408L7.63392 3.31329C7.59788 3.6338 7.48715 3.94138 7.31063 4.21131C7.13411 4.48124 6.89672 4.70599 6.61754 4.86749C6.33836 5.02899 6.02519 5.12274 5.7032 5.14121C5.3812 5.15967 5.05936 5.10233 4.76356 4.97379L3.9047 4.59579C3.34948 5.23807 2.91969 5.97881 2.63763 6.77958L3.40263 7.34336C3.66231 7.5346 3.87341 7.7842 4.0189 8.07202C4.16439 8.35984 4.24019 8.67783 4.24019 9.00033C4.24019 9.32283 4.16439 9.64082 4.0189 9.92864C3.87341 10.2165 3.66231 10.4661 3.40263 10.6573L2.63763 11.2217C2.91916 12.0238 3.34874 12.7658 3.90406 13.4094L4.7687 13.0301C5.06357 12.901 5.38465 12.8431 5.70604 12.8609C6.02742 12.8788 6.3401 12.972 6.61884 13.1329C6.89747 13.2939 7.13445 13.518 7.31075 13.7872C7.48704 14.0563 7.59773 14.3631 7.63392 14.6829V14.6861L7.73806 15.6272C8.57184 15.7912 9.42877 15.7912 10.2626 15.6272L10.3667 14.6841C10.3821 14.5427 10.4117 14.4032 10.4554 14.2695H10.4548Z" fill="white"/>
</svg>
