<svg width="18" height="18" viewBox="0 0 18 18" fill="none" xmlns="http://www.w3.org/2000/svg">
<path d="M15.9375 9.75C16.0734 9.75001 16.2048 9.79923 16.3072 9.88858C16.4096 9.97792 16.4763 10.1013 16.4948 10.236L16.5 10.3125V14.0625C16.5 14.6851 16.2618 15.2841 15.8342 15.7367C15.4067 16.1892 14.8221 16.461 14.2005 16.4963L14.0625 16.5H10.5615C10.9635 16.2113 11.2913 15.825 11.5103 15.3757L14.0625 15.375C14.392 15.375 14.7095 15.251 14.9518 15.0277C15.1941 14.8044 15.3436 14.4982 15.3705 14.1697L15.375 14.0625V10.3125C15.375 10.1633 15.4343 10.0202 15.5398 9.91475C15.6452 9.80926 15.7883 9.75 15.9375 9.75V9.75ZM8.8125 6.75C9.1326 6.75 9.44956 6.81305 9.74529 6.93554C10.041 7.05804 10.3097 7.23758 10.5361 7.46393C10.7624 7.69027 10.942 7.95898 11.0645 8.25471C11.187 8.55044 11.25 8.8674 11.25 9.1875V14.0625C11.25 14.3826 11.187 14.6996 11.0645 14.9953C10.942 15.291 10.7624 15.5597 10.5361 15.7861C10.3097 16.0124 10.041 16.192 9.74529 16.3145C9.44956 16.437 9.1326 16.5 8.8125 16.5H3.9375C3.6174 16.5 3.30044 16.437 3.00471 16.3145C2.70898 16.192 2.44027 16.0124 2.21393 15.7861C1.98758 15.5597 1.80804 15.291 1.68554 14.9953C1.56305 14.6996 1.5 14.3826 1.5 14.0625V9.1875C1.5 8.8674 1.56305 8.55044 1.68554 8.25471C1.80804 7.95898 1.98758 7.69027 2.21393 7.46393C2.67105 7.00681 3.29103 6.75 3.9375 6.75H8.8125ZM8.8125 7.875H3.9375C3.5894 7.875 3.25556 8.01328 3.00942 8.25942C2.76328 8.50556 2.625 8.8394 2.625 9.1875V14.0625C2.625 14.787 3.213 15.375 3.9375 15.375H8.8125C9.1606 15.375 9.49444 15.2367 9.74058 14.9906C9.98672 14.7444 10.125 14.4106 10.125 14.0625V9.1875C10.125 8.8394 9.98672 8.50556 9.74058 8.25942C9.49444 8.01328 9.1606 7.875 8.8125 7.875V7.875ZM4.54575 9.82725C4.58772 9.75005 4.65546 9.69004 4.73715 9.65769C4.81885 9.62534 4.90931 9.62271 4.99275 9.65025L5.05425 9.67725L8.02125 11.2957C8.0754 11.3252 8.12143 11.3676 8.15528 11.4192C8.18913 11.4707 8.20975 11.5298 8.21531 11.5912C8.22088 11.6526 8.21121 11.7145 8.18717 11.7712C8.16313 11.828 8.12546 11.878 8.0775 11.9167L8.02125 11.9543L5.05425 13.5728C5.00216 13.601 4.94413 13.6164 4.88491 13.6179C4.82569 13.6193 4.76696 13.6068 4.71355 13.5811C4.66013 13.5555 4.61354 13.5176 4.5776 13.4705C4.54165 13.4235 4.51737 13.3685 4.50675 13.3102L4.5 13.2435V10.0073C4.49992 9.94436 4.51565 9.88246 4.54575 9.82725V9.82725ZM14.0625 1.5C14.6851 1.49996 15.2841 1.73817 15.7367 2.16575C16.1892 2.59334 16.461 3.1779 16.4963 3.7995L16.5 3.9375V7.6875C16.5 7.83002 16.4458 7.96721 16.3485 8.07134C16.2512 8.17548 16.118 8.23881 15.9758 8.24852C15.8337 8.25823 15.6931 8.21361 15.5825 8.12368C15.472 8.03374 15.3997 7.90519 15.3803 7.764L15.375 7.6875V3.9375C15.375 3.60811 15.2511 3.29076 15.028 3.04846C14.8049 2.80615 14.4988 2.6566 14.1705 2.6295L14.0625 2.625H10.3125C10.17 2.62496 10.0328 2.57082 9.92866 2.47352C9.82452 2.37622 9.7612 2.24303 9.75148 2.10084C9.74177 1.95865 9.78639 1.81808 9.87632 1.70753C9.96626 1.59697 10.0948 1.52468 10.236 1.50525L10.3125 1.5H14.0625ZM7.6875 1.5C7.83002 1.50004 7.96721 1.55418 8.07134 1.65148C8.17548 1.74878 8.23881 1.88197 8.24852 2.02416C8.25823 2.16635 8.21361 2.30692 8.12368 2.41747C8.03374 2.52803 7.90519 2.60032 7.764 2.61975L7.6875 2.625H3.9375C3.60811 2.62501 3.29076 2.74888 3.04846 2.97201C2.80615 3.19514 2.6566 3.50122 2.6295 3.8295L2.625 3.9375V6.489C2.175 6.708 1.7895 7.0365 1.5 7.4385V3.9375C1.49996 3.3149 1.73817 2.71588 2.16575 2.26333C2.59334 1.81078 3.1779 1.539 3.7995 1.50375L3.9375 1.5H7.6875Z" fill="white"/>
</svg>
