<svg width="20" height="20" viewBox="0 0 20 20" fill="none" xmlns="http://www.w3.org/2000/svg">
<path d="M15.854 1.14601C15.7601 1.05212 15.6328 0.999374 15.5 0.999374C15.3672 0.999374 15.2399 1.05212 15.146 1.14601C15.0521 1.23989 14.9994 1.36723 14.9994 1.50001C14.9994 1.63278 15.0521 1.76012 15.146 1.85401C16.282 2.98901 16.875 4.72401 16.875 6.50001C16.875 8.27601 16.282 10.011 15.146 11.146C15.0521 11.2399 14.9994 11.3672 14.9994 11.5C14.9994 11.6328 15.0521 11.7601 15.146 11.854C15.2399 11.9479 15.3672 12.0006 15.5 12.0006C15.6328 12.0006 15.7601 11.9479 15.854 11.854C17.218 10.489 17.875 8.47401 17.875 6.50001C17.875 4.52601 17.218 2.51101 15.854 1.14601V1.14601Z" fill="white"/>
<path d="M13.854 3.14601C13.8075 3.09952 13.7523 3.06264 13.6916 3.03748C13.6309 3.01232 13.5658 2.99937 13.5 2.99937C13.4343 2.99937 13.3692 3.01232 13.3084 3.03748C13.2477 3.06264 13.1925 3.09952 13.146 3.14601C13.0995 3.19249 13.0627 3.24768 13.0375 3.30842C13.0123 3.36916 12.9994 3.43426 12.9994 3.50001C12.9994 3.56575 13.0123 3.63085 13.0375 3.69159C13.0627 3.75233 13.0995 3.80752 13.146 3.85401C13.781 4.48901 14.125 5.47401 14.125 6.50001C14.125 7.52601 13.781 8.51101 13.146 9.14601C13.0521 9.23989 12.9994 9.36723 12.9994 9.50001C12.9994 9.63278 13.0521 9.76012 13.146 9.85401C13.2399 9.94789 13.3672 10.0006 13.5 10.0006C13.6328 10.0006 13.7601 9.94789 13.854 9.85401C14.719 8.98901 15.125 7.72401 15.125 6.50001C15.125 5.27601 14.719 4.01101 13.854 3.14601V3.14601Z" fill="white"/>
<path d="M4 7C4 5.93913 4.42143 4.92172 5.17157 4.17157C5.92172 3.42143 6.93913 3 8 3C9.06087 3 10.0783 3.42143 10.8284 4.17157C11.5786 4.92172 12 5.93913 12 7C12 8.06087 11.5786 9.07828 10.8284 9.82843C10.0783 10.5786 9.06087 11 8 11C6.93913 11 5.92172 10.5786 5.17157 9.82843C4.42143 9.07828 4 8.06087 4 7V7ZM8 4C7.60603 4 7.21593 4.0776 6.85195 4.22836C6.48797 4.37913 6.15726 4.6001 5.87868 4.87868C5.6001 5.15726 5.37913 5.48797 5.22836 5.85195C5.0776 6.21593 5 6.60603 5 7C5 7.39397 5.0776 7.78407 5.22836 8.14805C5.37913 8.51203 5.6001 8.84275 5.87868 9.12132C6.15726 9.3999 6.48797 9.62088 6.85195 9.77164C7.21593 9.9224 7.60603 10 8 10C8.79565 10 9.55871 9.68393 10.1213 9.12132C10.6839 8.55871 11 7.79565 11 7C11 6.20435 10.6839 5.44129 10.1213 4.87868C9.55871 4.31607 8.79565 4 8 4V4Z" fill="white"/>
<path d="M1 14C1 12.887 1.903 12 3.009 12H13C13.5304 12 14.0391 12.2107 14.4142 12.5858C14.7893 12.9609 15 13.4696 15 14C15 15.691 14.167 16.966 12.865 17.797C11.583 18.614 9.855 19 8 19C6.145 19 4.417 18.614 3.135 17.797C1.833 16.967 1 15.69 1 14ZM3.009 13C2.448 13 2 13.447 2 14C2 15.309 2.622 16.284 3.673 16.953C4.743 17.636 6.265 18 8 18C9.735 18 11.257 17.636 12.327 16.953C13.377 16.283 14 15.31 14 14C14 13.7348 13.8946 13.4804 13.7071 13.2929C13.5196 13.1054 13.2652 13 13 13H3.009Z" fill="white"/>
</svg>
