<svg width="18" height="18" viewBox="0 0 18 18" fill="none" xmlns="http://www.w3.org/2000/svg">
<path d="M7.2 2.7C6.96131 2.7 6.73239 2.79482 6.56361 2.96361C6.39482 3.13239 6.3 3.36131 6.3 3.6V4.05C6.3 4.16935 6.25259 4.28381 6.1682 4.3682C6.08381 4.45259 5.96935 4.5 5.85 4.5C5.73065 4.5 5.61619 4.45259 5.5318 4.3682C5.44741 4.28381 5.4 4.16935 5.4 4.05V3.6C5.4 3.12261 5.58964 2.66478 5.92721 2.32721C6.26477 1.98965 6.72261 1.8 7.2 1.8H7.65C7.76935 1.8 7.88381 1.84741 7.9682 1.93181C8.05259 2.0162 8.1 2.13066 8.1 2.25C8.1 2.36935 8.05259 2.48381 7.9682 2.5682C7.88381 2.65259 7.76935 2.7 7.65 2.7H7.2Z" fill="white"/>
<path d="M6.3 10.8C6.3 11.0387 6.39482 11.2676 6.56361 11.4364C6.73239 11.6052 6.96131 11.7 7.2 11.7H7.65C7.76935 11.7 7.88381 11.7474 7.9682 11.8318C8.05259 11.9162 8.1 12.0307 8.1 12.15C8.1 12.2694 8.05259 12.3838 7.9682 12.4682C7.88381 12.5526 7.76935 12.6 7.65 12.6H7.2C6.72261 12.6 6.26477 12.4104 5.92721 12.0728C5.58964 11.7352 5.4 11.2774 5.4 10.8V10.35C5.4 10.2307 5.44741 10.1162 5.5318 10.0318C5.61619 9.94742 5.73065 9.90001 5.85 9.90001C5.96935 9.90001 6.08381 9.94742 6.1682 10.0318C6.25259 10.1162 6.3 10.2307 6.3 10.35V10.8Z" fill="white"/>
<path d="M6.3 3.825C6.3 3.52663 6.25259 3.24048 6.1682 3.0295C6.08381 2.81852 5.96935 2.7 5.85 2.7C5.73065 2.7 5.61619 2.81852 5.5318 3.0295C5.44741 3.24048 5.4 3.52663 5.4 3.825V10.575C5.4 10.8734 5.44741 11.1595 5.5318 11.3705C5.61619 11.5815 5.73065 11.7 5.85 11.7C5.96935 11.7 6.08381 11.5815 6.1682 11.3705C6.25259 11.1595 6.3 10.8734 6.3 10.575V3.825Z" fill="white"/>
<path d="M14.4 2.7C14.6387 2.7 14.8676 2.79482 15.0364 2.96361C15.2052 3.13239 15.3 3.36131 15.3 3.6V4.05C15.3 4.16935 15.3474 4.28381 15.4318 4.3682C15.5162 4.45259 15.6307 4.5 15.75 4.5C15.8693 4.5 15.9838 4.45259 16.0682 4.3682C16.1526 4.28381 16.2 4.16935 16.2 4.05V3.6C16.2 3.12261 16.0104 2.66478 15.6728 2.32721C15.3352 1.98965 14.8774 1.8 14.4 1.8H13.95C13.8307 1.8 13.7162 1.84741 13.6318 1.93181C13.5474 2.0162 13.5 2.13066 13.5 2.25C13.5 2.36935 13.5474 2.48381 13.6318 2.5682C13.7162 2.65259 13.8307 2.7 13.95 2.7H14.4Z" fill="white"/>
<path d="M14.4 11.7C14.6387 11.7 14.8676 11.6052 15.0364 11.4364C15.2052 11.2676 15.3 11.0387 15.3 10.8V10.35C15.3 10.2307 15.3474 10.1162 15.4318 10.0318C15.5162 9.94742 15.6307 9.90001 15.75 9.90001C15.8693 9.90001 15.9838 9.94742 16.0682 10.0318C16.1526 10.1162 16.2 10.2307 16.2 10.35V10.8C16.2 11.2774 16.0104 11.7352 15.6728 12.0728C15.3352 12.4104 14.8774 12.6 14.4 12.6H13.95C13.8307 12.6 13.7162 12.5526 13.6318 12.4682C13.5474 12.3838 13.5 12.2694 13.5 12.15C13.5 12.0307 13.5474 11.9162 13.6318 11.8318C13.7162 11.7474 13.8307 11.7 13.95 11.7H14.4Z" fill="white"/>
<path d="M15.75 2.7C15.6307 2.7 15.5162 2.81852 15.4318 3.0295C15.3474 3.24048 15.3 3.52663 15.3 3.825V10.575C15.3 10.8734 15.3474 11.1595 15.4318 11.3705C15.5162 11.5815 15.6307 11.7 15.75 11.7C15.8693 11.7 15.9838 11.5815 16.0682 11.3705C16.1526 11.1595 16.2 10.8734 16.2 10.575V3.825C16.2 3.52663 16.1526 3.24048 16.0682 3.0295C15.9838 2.81852 15.8693 2.7 15.75 2.7Z" fill="white"/>
<path d="M7.425 1.8C7.12663 1.8 6.84049 1.84741 6.62951 1.93181C6.41853 2.0162 6.3 2.13066 6.3 2.25C6.3 2.36935 6.41853 2.48381 6.62951 2.5682C6.84049 2.65259 7.12663 2.7 7.425 2.7H14.175C14.4734 2.7 14.7595 2.65259 14.9705 2.5682C15.1815 2.48381 15.3 2.36935 15.3 2.25C15.3 2.13066 15.1815 2.0162 14.9705 1.93181C14.7595 1.84741 14.4734 1.8 14.175 1.8H7.425Z" fill="white"/>
<path d="M6.3 12.15C6.3 12.0306 6.41853 11.9162 6.62951 11.8318C6.84049 11.7474 7.12663 11.7 7.425 11.7H14.175C14.4734 11.7 14.7595 11.7474 14.9705 11.8318C15.1815 11.9162 15.3 12.0306 15.3 12.15C15.3 12.2693 15.1815 12.3838 14.9705 12.4682C14.7595 12.5526 14.4734 12.6 14.175 12.6H7.425C7.12663 12.6 6.84049 12.5526 6.62951 12.4682C6.41853 12.3838 6.3 12.2693 6.3 12.15Z" fill="white"/>
<path d="M3.6 5.40001H4.5V6.30001H3.6C3.36131 6.30001 3.13239 6.39483 2.96361 6.56361C2.79482 6.7324 2.7 6.96131 2.7 7.20001V13.05C2.7 13.6467 2.93706 14.219 3.35901 14.641C3.78097 15.063 4.35327 15.3 4.95 15.3H10.8C11.0387 15.3 11.2676 15.2052 11.4364 15.0364C11.6052 14.8676 11.7 14.6387 11.7 14.4V13.5H12.6V14.4C12.6 14.8774 12.4104 15.3352 12.0728 15.6728C11.7352 16.0104 11.2774 16.2 10.8 16.2H4.95C4.11457 16.2 3.31336 15.8681 2.72262 15.2774C2.13188 14.6867 1.8 13.8854 1.8 13.05V7.20001C1.8 6.72262 1.98965 6.26478 2.32721 5.92722C2.66478 5.58965 3.12261 5.40001 3.6 5.40001Z" fill="white"/>
</svg>
