<svg width="75" height="75" viewBox="0 0 75 75" fill="none" xmlns="http://www.w3.org/2000/svg">
<path fill-rule="evenodd" clip-rule="evenodd" d="M37.5 5C33.232 5 29.0059 5.84064 25.0628 7.47391C21.1197 9.10719 17.5369 11.5011 14.519 14.519C11.5011 17.5369 9.10719 21.1197 7.47392 25.0628C5.84064 29.0059 5 33.232 5 37.5C5 41.768 5.84064 45.9941 7.47392 49.9372C9.10719 53.8803 11.5011 57.4631 14.519 60.481C17.5369 63.4989 21.1197 65.8928 25.0628 67.5261C29.0059 69.1594 33.232 70 37.5 70C46.1195 70 54.386 66.5759 60.481 60.481C66.5759 54.386 70 46.1195 70 37.5C70 28.8805 66.5759 20.614 60.481 14.519C54.386 8.4241 46.1195 5 37.5 5ZM23.1494 2.85452C27.6991 0.969966 32.5754 0 37.5 0C47.4456 1.49012e-07 56.9839 3.95088 64.0165 10.9835C71.0491 18.0161 75 27.5544 75 37.5C75 47.4456 71.0491 56.9839 64.0165 64.0165C56.9839 71.0491 47.4456 75 37.5 75C32.5754 75 27.6991 74.03 23.1494 72.1455C18.5997 70.2609 14.4657 67.4987 10.9835 64.0165C7.5013 60.5343 4.73907 56.4003 2.85452 51.8506C0.969966 47.3009 0 42.4246 0 37.5C0 32.5754 0.969967 27.6991 2.85452 23.1494C4.73907 18.5997 7.5013 14.4657 10.9835 10.9835C14.4657 7.5013 18.5997 4.73907 23.1494 2.85452ZM56.9522 26.5617L35.3589 53.5533L18.3995 39.4206L21.6005 35.5794L34.6411 46.4467L53.0478 23.4383L56.9522 26.5617Z" fill="#49C047"/>
</svg>
