<svg width="18" height="18" viewBox="0 0 18 18" fill="none" xmlns="http://www.w3.org/2000/svg">
<path d="M3.375 3.53572C2.82089 3.53572 2.28947 3.75584 1.89765 4.14766C1.50583 4.53948 1.28571 5.07089 1.28571 5.62501V12.375C1.28571 12.9291 1.50583 13.4605 1.89765 13.8524C2.28947 14.2442 2.82089 14.4643 3.375 14.4643H10.1263C10.6804 14.4643 11.2118 14.2442 11.6036 13.8524C11.9954 13.4605 12.2156 12.9291 12.2156 12.375V11.3593L15.1348 13.3599C15.2554 13.4426 15.3964 13.4908 15.5424 13.4994C15.6885 13.5079 15.8341 13.4764 15.9635 13.4083C16.093 13.3401 16.2014 13.2379 16.2771 13.1127C16.3527 12.9875 16.3928 12.844 16.3929 12.6977V5.30165C16.3927 5.15546 16.3526 5.01208 16.277 4.88697C16.2014 4.76185 16.0931 4.65974 15.9637 4.59162C15.8343 4.5235 15.6889 4.49197 15.5429 4.5004C15.397 4.50884 15.2561 4.55694 15.1354 4.63951L12.2156 6.63879V5.62501C12.2156 5.07089 11.9954 4.53948 11.6036 4.14766C11.2118 3.75584 10.6804 3.53572 10.1263 3.53572H3.375ZM12.2156 10.1906V7.80751L15.4286 5.60765V12.3924L12.2156 10.1906ZM11.2513 5.62501V12.375C11.2513 12.6734 11.1328 12.9595 10.9218 13.1705C10.7108 13.3815 10.4247 13.5 10.1263 13.5H3.375C3.07663 13.5 2.79048 13.3815 2.5795 13.1705C2.36853 12.9595 2.25 12.6734 2.25 12.375V5.62501C2.25 5.00401 2.754 4.50001 3.375 4.50001H10.1263C10.7479 4.50001 11.2513 5.00401 11.2513 5.62501Z" fill="white"/>
</svg>
