<svg width="18" height="18" viewBox="0 0 18 18" fill="none" xmlns="http://www.w3.org/2000/svg">
<path d="M2.10857 1.42714C2.06443 1.37977 2.0112 1.34177 1.95206 1.31542C1.89292 1.28907 1.82908 1.2749 1.76434 1.27376C1.6996 1.27261 1.6353 1.28452 1.57526 1.30877C1.51523 1.33302 1.46069 1.36911 1.41491 1.4149C1.36912 1.46068 1.33303 1.51522 1.30878 1.57525C1.28453 1.63529 1.27262 1.69959 1.27376 1.76433C1.27491 1.82907 1.28908 1.89291 1.31543 1.95205C1.34178 2.0112 1.37977 2.06443 1.42714 2.10857L2.90572 3.58842C2.44519 3.69469 2.03429 3.95392 1.74006 4.3238C1.44584 4.69368 1.28568 5.15237 1.28572 5.62499V12.375C1.28572 12.9291 1.50584 13.4605 1.89765 13.8523C2.28947 14.2442 2.82089 14.4643 3.375 14.4643H10.1263C10.5989 14.4643 11.0576 14.3042 11.4275 14.0099C11.7974 13.7157 12.0566 13.3048 12.1629 12.8443L15.8914 16.5729C15.9828 16.658 16.1037 16.7044 16.2286 16.7022C16.3535 16.7 16.4727 16.6494 16.561 16.561C16.6494 16.4727 16.7 16.3535 16.7022 16.2286C16.7044 16.1037 16.658 15.9828 16.5729 15.8914L2.10857 1.42714ZM11.2513 11.9334V12.375C11.2513 12.6734 11.1328 12.9595 10.9218 13.1705C10.7108 13.3815 10.4247 13.5 10.1263 13.5H3.375C3.07663 13.5 2.79049 13.3815 2.57951 13.1705C2.36853 12.9595 2.25 12.6734 2.25 12.375V5.62499C2.25 5.00399 2.754 4.49999 3.375 4.49999H3.81857L11.2513 11.9334Z" fill="white"/>
<path d="M5.58128 3.53571L6.54557 4.49999H10.1263C10.7479 4.49999 11.2513 5.00399 11.2513 5.62499V9.2057L12.2156 10.17V7.80749L15.4299 5.60956V12.3917L12.2799 10.2349L15.5456 13.5006C15.9789 13.5238 16.3941 13.1856 16.3941 12.6971V5.30485C16.3941 5.1586 16.3541 5.01514 16.2785 4.88993C16.203 4.76473 16.0946 4.66252 15.9653 4.59433C15.8359 4.52613 15.6904 4.49454 15.5444 4.50295C15.3983 4.51136 15.2574 4.55946 15.1367 4.64206L12.2156 6.63942V5.62499C12.2156 5.07088 11.9954 4.53946 11.6036 4.14764C11.2118 3.75583 10.6804 3.53571 10.1263 3.53571H5.58128Z" fill="white"/>
</svg>
