<svg width="18" height="18" viewBox="0 0 18 18" fill="none" xmlns="http://www.w3.org/2000/svg">
<path d="M2.10857 1.42714C2.06443 1.37977 2.0112 1.34177 1.95205 1.31542C1.89291 1.28907 1.82907 1.2749 1.76433 1.27376C1.69959 1.27261 1.63529 1.28452 1.57525 1.30877C1.51522 1.33302 1.46068 1.36911 1.4149 1.4149C1.36911 1.46068 1.33302 1.51522 1.30877 1.57525C1.28452 1.63529 1.27261 1.69959 1.27376 1.76433C1.2749 1.82907 1.28907 1.89291 1.31542 1.95205C1.34177 2.0112 1.37977 2.06443 1.42714 2.10857L2.90571 3.58842C2.44518 3.69469 2.03428 3.95392 1.74006 4.3238C1.44583 4.69368 1.28567 5.15237 1.28571 5.62499V12.375C1.28571 12.9291 1.50583 13.4605 1.89765 13.8523C2.28946 14.2442 2.82088 14.4643 3.37499 14.4643H10.1263C10.5989 14.4643 11.0576 14.3042 11.4275 14.0099C11.7973 13.7157 12.0566 13.3048 12.1629 12.8443L15.8914 16.5729C15.9828 16.658 16.1037 16.7044 16.2286 16.7022C16.3535 16.7 16.4727 16.6494 16.561 16.561C16.6494 16.4727 16.7 16.3535 16.7022 16.2286C16.7044 16.1037 16.658 15.9828 16.5729 15.8914L2.10857 1.42714ZM11.2513 11.9334V12.375C11.2513 12.6734 11.1328 12.9595 10.9218 13.1705C10.7108 13.3815 10.4246 13.5 10.1263 13.5H3.37499C3.07663 13.5 2.79048 13.3815 2.5795 13.1705C2.36852 12.9595 2.24999 12.6734 2.24999 12.375V5.62499C2.24999 5.00399 2.75399 4.49999 3.37499 4.49999H3.81857L11.2513 11.9334V11.9334Z" fill="white"/>
<path d="M5.58128 3.53571L6.54557 4.49999H10.1263C10.7479 4.49999 11.2513 5.00399 11.2513 5.62499V9.2057L12.2156 10.17V7.80749L15.4299 5.60956V12.3917L12.2799 10.2349L15.5456 13.5006C15.9789 13.5238 16.3941 13.1856 16.3941 12.6971V5.30485C16.3941 5.1586 16.3541 5.01514 16.2785 4.88993C16.203 4.76473 16.0946 4.66252 15.9653 4.59433C15.8359 4.52613 15.6904 4.49454 15.5444 4.50295C15.3983 4.51136 15.2574 4.55946 15.1367 4.64206L12.2156 6.63942V5.62499C12.2156 5.07088 11.9954 4.53946 11.6036 4.14764C11.2118 3.75583 10.6804 3.53571 10.1263 3.53571H5.58128V3.53571Z" fill="white"/>
</svg>
