<svg width="22" height="22" viewBox="0 0 22 22" fill="none" xmlns="http://www.w3.org/2000/svg">
<path d="M9.64152 9.4836C9.55826 9.43156 9.4626 9.40276 9.36445 9.40018C9.26631 9.39761 9.16927 9.42135 9.08339 9.46894C8.99752 9.51653 8.92596 9.58625 8.87613 9.67084C8.8263 9.75543 8.80002 9.85182 8.80002 9.95V15.615C8.8 15.7144 8.82693 15.812 8.87793 15.8973C8.92894 15.9826 9.00211 16.0525 9.08967 16.0996C9.17724 16.1466 9.27592 16.1691 9.37522 16.1645C9.47452 16.1599 9.57073 16.1286 9.65362 16.0737L14.0536 13.1598C14.1302 13.109 14.1929 13.0399 14.2359 12.9586C14.2789 12.8774 14.3008 12.7867 14.2997 12.6948C14.2986 12.6029 14.2745 12.5127 14.2296 12.4326C14.1847 12.3524 14.1204 12.2847 14.0426 12.2358L9.64262 9.4836H9.64152Z" fill="white"/>
<path d="M4.95001 5C4.22067 5 3.52119 5.28973 3.00547 5.80546C2.48974 6.32118 2.20001 7.02065 2.20001 7.75V17.65C2.20001 18.3793 2.48974 19.0788 3.00547 19.5945C3.52119 20.1103 4.22067 20.4 4.95001 20.4H17.05C17.7794 20.4 18.4788 20.1103 18.9946 19.5945C19.5103 19.0788 19.8 18.3793 19.8 17.65V7.75C19.8 7.02065 19.5103 6.32118 18.9946 5.80546C18.4788 5.28973 17.7794 5 17.05 5H4.95001ZM3.30001 7.75C3.30001 7.31239 3.47385 6.89271 3.78329 6.58327C4.09272 6.27384 4.5124 6.1 4.95001 6.1H17.05C17.4876 6.1 17.9073 6.27384 18.2167 6.58327C18.5262 6.89271 18.7 7.31239 18.7 7.75V17.65C18.7 18.0876 18.5262 18.5073 18.2167 18.8167C17.9073 19.1262 17.4876 19.3 17.05 19.3H4.95001C4.5124 19.3 4.09272 19.1262 3.78329 18.8167C3.47385 18.5073 3.30001 18.0876 3.30001 17.65V7.75Z" fill="white"/>
</svg>
