<svg width="20" height="20" viewBox="0 0 20 20" fill="none" xmlns="http://www.w3.org/2000/svg">
<path d="M2.49998 4.99999H17.5V9.16666H19.1666V4.99999C19.1666 4.08333 18.4166 3.33333 17.5 3.33333H2.49998C1.58331 3.33333 0.833313 4.08333 0.833313 4.99999V15C0.833313 15.9167 1.58331 16.6667 2.49998 16.6667H9.99998V15H2.49998V4.99999Z" fill="white"/>
<path d="M12.5 9.99999L7.5 6.66666V13.3333L12.5 9.99999Z" fill="white"/>
<path d="M18.925 15.3583C18.95 15.1167 18.9583 14.875 18.9333 14.6417L19.825 13.9333C19.9083 13.8667 19.925 13.7583 19.875 13.6667L19.0166 12.175C18.9666 12.0833 18.8583 12.05 18.7583 12.0833L17.6916 12.5C17.5 12.3583 17.2916 12.2417 17.0666 12.15L16.9 11.0167C16.8833 10.9083 16.8 10.8333 16.6916 10.8333H14.9666C14.8666 10.8333 14.775 10.9083 14.7583 11.0083L14.5916 12.1417C14.375 12.2333 14.1666 12.3583 13.975 12.4917L12.9083 12.075C12.8083 12.0333 12.7 12.075 12.65 12.1667L11.7916 13.6583C11.7416 13.75 11.7583 13.8583 11.8416 13.925L12.7333 14.6417C12.7083 14.8833 12.7 15.125 12.725 15.3583L11.8333 16.0667C11.75 16.1333 11.7333 16.2417 11.7833 16.3333L12.6416 17.825C12.6916 17.9167 12.8 17.95 12.9 17.9167L13.9583 17.5C14.15 17.6417 14.3583 17.7583 14.5833 17.85L14.75 18.9833C14.7666 19.0833 14.85 19.1583 14.9583 19.1583H16.6833C16.7833 19.1583 16.875 19.0833 16.8916 18.9833L17.0583 17.85C17.275 17.7583 17.4833 17.6333 17.675 17.5L18.7416 17.9167C18.8416 17.9583 18.95 17.9167 19 17.825L19.8583 16.3333C19.9083 16.2417 19.8916 16.1333 19.8083 16.0667L18.925 15.3583ZM15.8333 16.25C15.1416 16.25 14.5833 15.6917 14.5833 15C14.5833 14.3083 15.1416 13.75 15.8333 13.75C16.525 13.75 17.0833 14.3083 17.0833 15C17.0833 15.6917 16.525 16.25 15.8333 16.25Z" fill="white"/>
</svg>
