<svg width="20" height="20" viewBox="0 0 20 20" fill="none" xmlns="http://www.w3.org/2000/svg">
<path d="M12.3017 11.2733L12.4167 11.3875L17.0834 16.2842V11.7917C17.0834 11.6333 17.1436 11.4809 17.2517 11.3652C17.3598 11.2495 17.5078 11.1791 17.6658 11.1683C17.8237 11.1575 17.9799 11.2071 18.1028 11.307C18.2256 11.407 18.3059 11.5498 18.3275 11.7067L18.3334 11.7917V16.3767C18.3334 16.9602 18.1108 17.5218 17.7109 17.9469C17.3111 18.372 16.7642 18.6285 16.1817 18.6642L16.0417 18.6683H11.4584C11.3 18.6683 11.1476 18.6081 11.0319 18.5C10.9162 18.3919 10.8458 18.2439 10.835 18.0859C10.8242 17.9279 10.8738 17.7718 10.9737 17.6489C11.0736 17.5261 11.2165 17.4458 11.3734 17.4242L11.4584 17.4183H15.8617L11.21 12.5375C10.9127 12.2253 10.5059 12.0404 10.0752 12.0218C9.64444 12.0031 9.22323 12.1521 8.90002 12.4375L8.79669 12.5375L4.14835 17.4183H8.54169L8.62669 17.4242C8.77628 17.4447 8.91336 17.5188 9.0126 17.6326C9.11183 17.7464 9.1665 17.8923 9.1665 18.0433C9.1665 18.1943 9.11183 18.3402 9.0126 18.4541C8.91336 18.5679 8.77628 18.6419 8.62669 18.6625L8.54169 18.6683H3.95835L3.81835 18.6642C3.26091 18.6302 2.73507 18.3938 2.33963 17.9994C1.94419 17.605 1.70637 17.0798 1.67085 16.5225L1.66669 16.3758V11.7925L1.67252 11.7075C1.6931 11.5579 1.76715 11.4208 1.88097 11.3216C1.99479 11.2224 2.14068 11.1677 2.29169 11.1677C2.44269 11.1677 2.58859 11.2224 2.70241 11.3216C2.81623 11.4208 2.89027 11.5579 2.91085 11.7075L2.91669 11.7925V16.2958L7.58919 11.3892C8.19887 10.749 9.03786 10.3773 9.92162 10.3557C10.8054 10.3342 11.6615 10.6645 12.3017 11.2742V11.2733ZM8.54169 2C8.70004 2.00005 8.85247 2.0602 8.96818 2.16831C9.08389 2.27642 9.15425 2.42442 9.16504 2.5824C9.17584 2.74038 9.12626 2.89658 9.02633 3.01942C8.9264 3.14225 8.78356 3.22258 8.62669 3.24417L8.54169 3.25H3.95835C3.70047 3.24988 3.45171 3.34543 3.26022 3.51814C3.06872 3.69086 2.94809 3.92847 2.92169 4.185L2.91669 4.2925V8.8775C2.91664 9.03585 2.85648 9.18829 2.74838 9.30399C2.64027 9.4197 2.49227 9.49006 2.33429 9.50086C2.1763 9.51165 2.02011 9.46207 1.89727 9.36214C1.77443 9.26221 1.6941 9.11938 1.67252 8.9625L1.66669 8.87667V4.2925C1.66666 3.70893 1.88926 3.14733 2.2891 2.72225C2.68893 2.29718 3.23587 2.04065 3.81835 2.005L3.95835 2.00083H8.54169V2ZM16.0417 2L16.1817 2.00417C16.7391 2.03817 17.265 2.27456 17.6604 2.66893C18.0558 3.06329 18.2937 3.58849 18.3292 4.14583L18.3334 4.2925V8.8775L18.3275 8.9625C18.3069 9.11209 18.2329 9.24918 18.1191 9.34841C18.0053 9.44764 17.8594 9.50231 17.7084 9.50231C17.5574 9.50231 17.4115 9.44764 17.2976 9.34841C17.1838 9.24918 17.1098 9.11209 17.0892 8.9625L17.0834 8.8775V4.2925L17.0784 4.18583C17.0539 3.94751 16.9481 3.7249 16.7787 3.5555C16.6093 3.3861 16.3867 3.28027 16.1484 3.25583L16.0417 3.25083H11.4584L11.3734 3.245C11.2238 3.22442 11.0867 3.15037 10.9874 3.03655C10.8882 2.92273 10.8335 2.77684 10.8335 2.62583C10.8335 2.47483 10.8882 2.32893 10.9874 2.21511C11.0867 2.10129 11.2238 2.02725 11.3734 2.00667L11.4584 2.00083H16.0417V2ZM13.3359 5.33333C13.7779 5.33333 14.2018 5.50893 14.5144 5.82149C14.8269 6.13405 15.0025 6.55797 15.0025 7C15.0025 7.44203 14.8269 7.86595 14.5144 8.17851C14.2018 8.49107 13.7779 8.66667 13.3359 8.66667C12.8938 8.66667 12.4699 8.49107 12.1573 8.17851C11.8448 7.86595 11.6692 7.44203 11.6692 7C11.6692 6.55797 11.8448 6.13405 12.1573 5.82149C12.4699 5.50893 12.8938 5.33333 13.3359 5.33333Z" fill="white"/>
</svg>
